STARTFONT 2.1
COMMENT
COMMENT Converted from TrueType font "dsarmy.ttf" by "ttf2bdf 2.8".
COMMENT
FONT -FreeType-DS Army Cyr-Medium-R-Normal--39-280-100-100-P-176-ISO10646-1
SIZE 28 100 100
FONTBOUNDINGBOX 37 34 0 -7
STARTPROPERTIES 19
FOUNDRY "FreeType"
FAMILY_NAME "DS Army Cyr"
WEIGHT_NAME "Medium"
SLANT "R"
SETWIDTH_NAME "Normal"
ADD_STYLE_NAME ""
PIXEL_SIZE 39
POINT_SIZE 280
RESOLUTION_X 100
RESOLUTION_Y 100
SPACING "P"
AVERAGE_WIDTH 176
CHARSET_REGISTRY "ISO10646"
CHARSET_ENCODING "1"
FONT_ASCENT 22
FONT_DESCENT 0
COPYRIGHT "1997-98 by Dubina Nikolay D-Studio 'Moscow'  and Ray Larabie"
_TTF_FONTFILE "dsarmy.ttf"
_TTF_PSNAME "DSArmyCyr"
ENDPROPERTIES
CHARS 228
STARTCHAR 0020
ENCODING 32
SWIDTH 488 0
DWIDTH 19 0
BBX 1 1 0 0
BITMAP
00
ENDCHAR
STARTCHAR 0021
ENCODING 33
SWIDTH 205 0
DWIDTH 8 0
BBX 6 23 1 0
BITMAP
FC
FC
FC
FC
FC
FC
FC
FC
FC
FC
FC
FC
FC
FC
FC
00
00
00
00
FC
FC
FC
FC
ENDCHAR
STARTCHAR 0022
ENCODING 34
SWIDTH 411 0
DWIDTH 16 0
BBX 14 7 1 18
BITMAP
FCFC
FCFC
FCFC
FCFC
1C1C
3C3C
3C3C
ENDCHAR
STARTCHAR 0023
ENCODING 35
SWIDTH 771 0
DWIDTH 30 0
BBX 26 21 2 3
BITMAP
07E1F800
07E1F800
07E1F800
07E1F800
FFF3FFC0
FFF3FFC0
07E1F800
07E1F800
07E1F800
07E1F800
07E1F800
07E1F800
07E1F800
07E1F800
07E1F800
FFF3FFC0
FFF3FFC0
07E1F800
07E1F800
07E1F800
07E1F800
ENDCHAR
STARTCHAR 0024
ENCODING 36
SWIDTH 488 0
DWIDTH 19 0
BBX 17 32 1 -5
BITMAP
01F800
01F800
01F800
000000
3FFF80
FFFF80
FC0000
FC0000
FC0000
FC0000
FC0000
FC0000
FC0000
FC0000
FE3F00
3E3F80
001F80
001F80
001F80
001F80
001F80
001F80
001F80
001F80
001F80
FFFF80
FFFE00
000000
000000
000000
03F000
03F000
ENDCHAR
STARTCHAR 0025
ENCODING 37
SWIDTH 977 0
DWIDTH 38 0
BBX 36 23 1 0
BITMAP
FE3F807F00
FE3F807E00
FC1F80FC00
FC1F81F800
FC1F83F000
FC1F87E000
FC1F8FC000
FE3F9F8000
FE3FBF0000
00007E0000
0000FC0000
0001F80000
0003F00000
0007E00000
000FDFC7F0
001F9FC7F0
003F1F83F0
007E1F83F0
00FC1F83F0
01F81F83F0
03F01F83F0
07E01FC7F0
0FC01FC7F0
ENDCHAR
STARTCHAR 0026
ENCODING 38
SWIDTH 540 0
DWIDTH 21 0
BBX 18 23 1 0
BITMAP
7E6000
FE6000
FC0000
FC0000
FC0000
FC0000
FC0000
FE7F80
FE7F80
FC0000
FC0000
FC0000
FC0000
FC0000
FC1F80
FC1F80
FC1F80
FC1F80
FC1F80
FC1F80
FC1F80
FE7FC0
3E7FC0
ENDCHAR
STARTCHAR 0027
ENCODING 39
SWIDTH 205 0
DWIDTH 8 0
BBX 6 7 1 18
BITMAP
FC
FC
FC
FC
1C
3C
3C
ENDCHAR
STARTCHAR 0028
ENCODING 40
SWIDTH 334 0
DWIDTH 13 0
BBX 11 23 1 0
BITMAP
7FE0
FFE0
FC00
FC00
FC00
FC00
FC00
FC00
FC00
FC00
FC00
FC00
FC00
FC00
FC00
FC00
FC00
FC00
FC00
FC00
FC00
FFE0
7FE0
ENDCHAR
STARTCHAR 0029
ENCODING 41
SWIDTH 334 0
DWIDTH 13 0
BBX 11 23 1 0
BITMAP
FFC0
FFE0
07E0
07E0
07E0
07E0
07E0
07E0
07E0
07E0
07E0
07E0
07E0
07E0
07E0
07E0
07E0
07E0
07E0
07E0
07E0
FFE0
FF80
ENDCHAR
STARTCHAR 002A
ENCODING 42
SWIDTH 257 0
DWIDTH 10 0
BBX 7 9 1 10
BITMAP
10
18
7E
7C
3C
7C
DE
10
10
ENDCHAR
STARTCHAR 002B
ENCODING 43
SWIDTH 488 0
DWIDTH 19 0
BBX 16 10 2 7
BITMAP
07E0
07E0
07E0
07E0
FFFF
FFFF
07E0
07E0
07E0
07E0
ENDCHAR
STARTCHAR 002C
ENCODING 44
SWIDTH 205 0
DWIDTH 8 0
BBX 6 7 1 -3
BITMAP
FC
FC
FC
FC
1C
1C
3C
ENDCHAR
STARTCHAR 002D
ENCODING 45
SWIDTH 514 0
DWIDTH 20 0
BBX 18 2 1 11
BITMAP
FFFFC0
FFFFC0
ENDCHAR
STARTCHAR 002E
ENCODING 46
SWIDTH 154 0
DWIDTH 6 0
BBX 4 4 1 0
BITMAP
F0
F0
F0
F0
ENDCHAR
STARTCHAR 002F
ENCODING 47
SWIDTH 745 0
DWIDTH 29 0
BBX 25 23 2 0
BITMAP
00001F80
00001F80
00003F00
00007E00
0000FC00
0001F800
0003F000
0007E000
000FC000
001F8000
003F0000
003F0000
007E0000
00FC0000
01F80000
03F00000
07E00000
0FC00000
1F800000
3F000000
7E000000
7E000000
FC000000
ENDCHAR
STARTCHAR 0030
ENCODING 48
SWIDTH 488 0
DWIDTH 19 0
BBX 17 23 1 0
BITMAP
7E3F00
FE3F80
FC1F80
FC1F80
FC1F80
FC1F80
FC1F80
FC1F80
FC1F80
FC1F80
FC1F80
FC1F80
FC1F80
FC1F80
FC1F80
FC1F80
FC1F80
FC1F80
FC1F80
FC1F80
FC1F80
FE3F80
7E3F00
ENDCHAR
STARTCHAR 0031
ENCODING 49
SWIDTH 282 0
DWIDTH 11 0
BBX 7 23 2 0
BITMAP
FC
FE
7E
7E
7E
7E
7E
7E
7E
7E
7E
7E
7E
7E
7E
7E
7E
7E
7E
7E
7E
7E
7E
ENDCHAR
STARTCHAR 0032
ENCODING 50
SWIDTH 488 0
DWIDTH 19 0
BBX 17 23 1 0
BITMAP
1E3C00
1E3F00
001F80
001F80
001F80
001F80
001F80
001F80
001F80
001F80
001F80
3E7F00
7E7C00
FC0000
FC0000
FC0000
FC0000
FC0000
FC0000
FC0000
FC0000
FE3F80
FE3F80
ENDCHAR
STARTCHAR 0033
ENCODING 51
SWIDTH 411 0
DWIDTH 16 0
BBX 13 23 1 0
BITMAP
F3F0
F3F8
01F8
01F8
01F8
01F8
01F8
01F8
01F8
01F8
01F8
33F0
33F0
01F8
01F8
01F8
01F8
01F8
01F8
01F8
01F8
F3F8
F3E0
ENDCHAR
STARTCHAR 0034
ENCODING 52
SWIDTH 565 0
DWIDTH 22 0
BBX 18 23 1 0
BITMAP
FC0000
FC0000
FC0000
FC0000
FC0000
FC0000
FC0000
FC1F80
FC1F80
FC1F80
FE3FC0
FE3FC0
3E3FC0
001F80
001F80
001F80
001F80
001F80
001F80
001F80
001F80
001F80
001F80
ENDCHAR
STARTCHAR 0035
ENCODING 53
SWIDTH 488 0
DWIDTH 19 0
BBX 17 23 1 0
BITMAP
FE3F80
FE3F80
FC0000
FC0000
FC0000
FC0000
FC0000
FC0000
FC0000
FC0000
FC0000
FE3F80
7E3F80
001F80
001F80
001F80
001F80
001F80
001F80
001F80
001F80
FE3F80
FE3E00
ENDCHAR
STARTCHAR 0036
ENCODING 54
SWIDTH 488 0
DWIDTH 19 0
BBX 17 23 1 0
BITMAP
7E7800
FE7800
FC0000
FC0000
FC0000
FC0000
FC0000
FC0000
FC0000
FC0000
FE7F00
FE7F80
FC1F80
FC1F80
FC1F80
FC1F80
FC1F80
FC1F80
FC1F80
FC1F80
FC1F80
FE7F80
7E7E00
ENDCHAR
STARTCHAR 0037
ENCODING 55
SWIDTH 462 0
DWIDTH 18 0
BBX 16 23 1 0
BITMAP
FF3F
FE7F
007E
007E
00FC
00FC
01FC
01F8
01F8
03F0
03F0
07E0
07E0
0FE0
0FC0
0FC0
1F80
1F80
3F00
3F00
3F00
7E00
7E00
ENDCHAR
STARTCHAR 0038
ENCODING 56
SWIDTH 488 0
DWIDTH 19 0
BBX 17 23 1 0
BITMAP
7E7F00
FE7F80
FC1F80
FC1F80
FC1F80
FC1F80
FC1F80
FC1F80
FC1F80
FC1F80
FC1F80
7E7F80
FE7F80
FC1F80
FC1F80
FC1F80
FC1F80
FC1F80
FC1F80
FC1F80
FC1F80
FE7F80
7E7F00
ENDCHAR
STARTCHAR 0039
ENCODING 57
SWIDTH 488 0
DWIDTH 19 0
BBX 17 23 1 0
BITMAP
3E3F00
FE3F80
FC1F80
FC1F80
FC1F80
FC1F80
FC1F80
FC1F80
FC1F80
FC1F80
FC1F80
FE3F80
3E3F80
001F80
001F80
001F80
001F80
001F80
001F80
001F80
001F80
1E3F80
1E3F00
ENDCHAR
STARTCHAR 003A
ENCODING 58
SWIDTH 154 0
DWIDTH 6 0
BBX 4 14 1 0
BITMAP
F0
F0
F0
F0
00
00
00
00
00
00
F0
F0
F0
F0
ENDCHAR
STARTCHAR 003B
ENCODING 59
SWIDTH 205 0
DWIDTH 8 0
BBX 6 17 1 -3
BITMAP
78
78
78
78
00
00
00
00
00
00
FC
FC
FC
FC
1C
1C
3C
ENDCHAR
STARTCHAR 003C
ENCODING 60
SWIDTH 308 0
DWIDTH 12 0
BBX 10 13 1 7
BITMAP
0040
00C0
03C0
0700
1E00
3800
F000
3800
1E00
0780
03C0
00C0
0040
ENDCHAR
STARTCHAR 003D
ENCODING 61
SWIDTH 488 0
DWIDTH 19 0
BBX 17 13 1 5
BITMAP
FFFF80
FFFF80
000000
000000
000000
000000
000000
000000
000000
000000
000000
FFFF80
FFFF80
ENDCHAR
STARTCHAR 003E
ENCODING 62
SWIDTH 308 0
DWIDTH 12 0
BBX 10 13 1 7
BITMAP
8000
E000
F000
3C00
0E00
0780
01C0
0780
1E00
3C00
F000
E000
8000
ENDCHAR
STARTCHAR 003F
ENCODING 63
SWIDTH 488 0
DWIDTH 19 0
BBX 17 23 1 0
BITMAP
FE3E00
FE3F80
001F80
001F80
001F80
001F80
001F80
001F80
001F80
001F80
FE3F80
FE3F00
FC0000
FC0000
FC0000
000000
000000
000000
000000
FC0000
FC0000
FC0000
FC0000
ENDCHAR
STARTCHAR 0040
ENCODING 64
SWIDTH 617 0
DWIDTH 24 0
BBX 22 23 1 0
BITMAP
7FF9F0
FFF9F8
E00078
E00078
E00078
E3F9F8
E3F9F8
E30078
E30078
E30078
E30078
E30078
E30078
E30078
E30078
E30078
E3F9F8
E1F9F0
E00000
E00000
E00000
FFFFFC
7FFFFC
ENDCHAR
STARTCHAR 0041
ENCODING 65
SWIDTH 488 0
DWIDTH 19 0
BBX 17 23 1 0
BITMAP
7E3F00
FE3F80
FC1F80
FC1F80
FC1F80
FC1F80
FC1F80
FC1F80
FC1F80
FC1F80
FE3F80
FE3F80
FE3F80
FC1F80
FC1F80
FC1F80
FC1F80
FC1F80
FC1F80
FC1F80
FC1F80
FC1F80
FC1F80
ENDCHAR
STARTCHAR 0042
ENCODING 66
SWIDTH 488 0
DWIDTH 19 0
BBX 17 23 1 0
BITMAP
FE3F00
FE3F80
FC1F80
FC1F80
FC1F80
FC1F80
FC1F80
FC1F80
FC1F80
FC1F80
FE3F00
FE3F00
FC1F80
FC1F80
FC1F80
FC1F80
FC1F80
FC1F80
FC1F80
FC1F80
FC1F80
FE3F80
FE3F00
ENDCHAR
STARTCHAR 0043
ENCODING 67
SWIDTH 385 0
DWIDTH 15 0
BBX 14 23 1 0
BITMAP
7E3C
FE3C
FC00
FC00
FC00
FC00
FC00
FC00
FC00
FC00
FC00
FC00
FC00
FC00
FC00
FC00
FC00
FC00
FC00
FC00
FC00
FE3C
7E3C
ENDCHAR
STARTCHAR 0044
ENCODING 68
SWIDTH 488 0
DWIDTH 19 0
BBX 17 23 1 0
BITMAP
FE3F00
FE3F80
FC1F80
FC1F80
FC1F80
FC1F80
FC1F80
FC1F80
FC1F80
FC1F80
FC1F80
FC1F80
FC1F80
FC1F80
FC1F80
FC1F80
FC1F80
FC1F80
FC1F80
FC1F80
FC1F80
FE3F80
FE3E00
ENDCHAR
STARTCHAR 0045
ENCODING 69
SWIDTH 437 0
DWIDTH 17 0
BBX 15 23 1 0
BITMAP
FE7E
FE7E
FC00
FC00
FC00
FC00
FC00
FC00
FC00
FC00
FC00
FE60
FE60
FC00
FC00
FC00
FC00
FC00
FC00
FC00
FC00
FE7E
FE7E
ENDCHAR
STARTCHAR 0046
ENCODING 70
SWIDTH 462 0
DWIDTH 18 0
BBX 16 23 1 0
BITMAP
FE7F
FE7F
FC00
FC00
FC00
FC00
FC00
FC00
FC00
FC00
FE60
FE60
FE60
FC00
FC00
FC00
FC00
FC00
FC00
FC00
FC00
FC00
FC00
ENDCHAR
STARTCHAR 0047
ENCODING 71
SWIDTH 488 0
DWIDTH 19 0
BBX 17 23 1 0
BITMAP
7F3F80
FF3F80
FC0000
FC0000
FC0000
FC0000
FC0000
FC0000
FC0000
FC0000
FC1F80
FC1F80
FC1F80
FC1F80
FC1F80
FC1F80
FC1F80
FC1F80
FC1F80
FC1F80
FC1F80
FE3F80
7E3F80
ENDCHAR
STARTCHAR 0048
ENCODING 72
SWIDTH 488 0
DWIDTH 19 0
BBX 17 23 1 0
BITMAP
FC1F80
FC1F80
FC1F80
FC1F80
FC1F80
FC1F80
FC1F80
FC1F80
FC1F80
FC1F80
FE3F80
FE3F80
FE3F80
FC1F80
FC1F80
FC1F80
FC1F80
FC1F80
FC1F80
FC1F80
FC1F80
FC1F80
FC1F80
ENDCHAR
STARTCHAR 0049
ENCODING 73
SWIDTH 205 0
DWIDTH 8 0
BBX 6 23 1 0
BITMAP
FC
FC
FC
FC
FC
FC
FC
FC
FC
FC
FC
FC
FC
FC
FC
FC
FC
FC
FC
FC
FC
FC
FC
ENDCHAR
STARTCHAR 004A
ENCODING 74
SWIDTH 334 0
DWIDTH 13 0
BBX 11 23 1 0
BITMAP
07E0
07E0
07E0
07E0
07E0
07E0
07E0
07E0
07E0
07E0
07E0
07E0
07E0
07E0
07E0
07E0
07E0
07E0
07E0
07E0
07E0
EFE0
EFC0
ENDCHAR
STARTCHAR 004B
ENCODING 75
SWIDTH 488 0
DWIDTH 19 0
BBX 17 23 1 0
BITMAP
FC3F00
FC7F00
FC7E00
FCFC00
FDF800
FBF000
F3F000
E7E000
CFC000
9F8000
3F0000
3F2000
7E6000
FCF000
F9F000
F1F800
F1F800
E4FC00
CCFE00
9C7E00
3C7F00
7C3F00
FC1F80
ENDCHAR
STARTCHAR 004C
ENCODING 76
SWIDTH 385 0
DWIDTH 15 0
BBX 13 23 1 0
BITMAP
FC00
FC00
FC00
FC00
FC00
FC00
FC00
FC00
FC00
FC00
FC00
FC00
FC00
FC00
FC00
FC00
FC00
FC00
FC00
FC00
FC00
FE78
FE78
ENDCHAR
STARTCHAR 004D
ENCODING 77
SWIDTH 771 0
DWIDTH 30 0
BBX 28 23 1 0
BITMAP
CF803F30
CF803F70
EFC03E70
E7C07E70
E7C07EF0
F7E07CF0
F3E0FCF0
FBE0FDF0
FBF0F9F0
F9F0F9F0
FDF1FBF0
FDF9F3F0
FCF9F3F0
FCF9F3F0
FCFDF3F0
FC7CE3F0
FC7CE3F0
FC7EE3F0
FC3E43F0
FC3F43F0
FC3F03F0
FC3F03F0
FC1F83F0
ENDCHAR
STARTCHAR 004E
ENCODING 78
SWIDTH 488 0
DWIDTH 19 0
BBX 17 23 1 0
BITMAP
FC1F80
7E1F80
7E1F80
3F1F80
3F1F80
9F9F80
9F9F80
CFCF80
CFCF80
E7E780
E7F780
F3F380
F3FB80
FBF980
F9FC80
FDFC80
FCFE00
FCFE00
FC7F00
FC7F00
FC3F80
FC3F80
FC1F80
ENDCHAR
STARTCHAR 004F
ENCODING 79
SWIDTH 488 0
DWIDTH 19 0
BBX 17 23 1 0
BITMAP
7E3F00
FE3F80
FC1F80
FC1F80
FC1F80
FC1F80
FC1F80
FC1F80
FC1F80
FC1F80
FC1F80
FC1F80
FC1F80
FC1F80
FC1F80
FC1F80
FC1F80
FC1F80
FC1F80
FC1F80
FC1F80
FE3F80
7E3F00
ENDCHAR
STARTCHAR 0050
ENCODING 80
SWIDTH 488 0
DWIDTH 19 0
BBX 17 23 1 0
BITMAP
FE3F00
FE3F80
FC1F80
FC1F80
FC1F80
FC1F80
FC1F80
FC1F80
FC1F80
FC1F80
FE3F80
FE3F00
FE3E00
FC0000
FC0000
FC0000
FC0000
FC0000
FC0000
FC0000
FC0000
FC0000
FC0000
ENDCHAR
STARTCHAR 0051
ENCODING 81
SWIDTH 540 0
DWIDTH 21 0
BBX 18 23 1 0
BITMAP
7E3F00
FE3F80
FC1F80
FC1F80
FC1F80
FC1F80
FC1F80
FC1F80
FC1F80
FC1F80
FC1F80
FC1F80
FC1F80
FC1F80
FC1F80
FC1F80
FC1F80
FC1F80
FC1F80
FC1F80
FC1F80
FE3FC0
7E3FC0
ENDCHAR
STARTCHAR 0052
ENCODING 82
SWIDTH 488 0
DWIDTH 19 0
BBX 17 23 1 0
BITMAP
FE3F00
FE3F80
FC1F80
FC1F80
FC1F80
FC1F80
FC1F80
FC1F80
FC1F80
FC1F80
FC1F80
FFFF00
FC0000
FDF000
FDF800
FCF800
FCFC00
FC7C00
FC7C00
FC7E00
FC3E00
FC3F00
FC1F00
ENDCHAR
STARTCHAR 0053
ENCODING 83
SWIDTH 488 0
DWIDTH 19 0
BBX 17 23 1 0
BITMAP
7E7F00
FE7F00
FC0000
FC0000
FC0000
FC0000
FC0000
FC0000
FC0000
FC0000
FE7F00
7E7F80
001F80
001F80
001F80
001F80
001F80
001F80
001F80
001F80
001F80
7E7F80
7E7F00
ENDCHAR
STARTCHAR 0054
ENCODING 84
SWIDTH 411 0
DWIDTH 16 0
BBX 13 23 1 0
BITMAP
CFD8
CFD8
0FC0
0FC0
0FC0
0FC0
0FC0
0FC0
0FC0
0FC0
0FC0
0FC0
0FC0
0FC0
0FC0
0FC0
0FC0
0FC0
0FC0
0FC0
0FC0
0FC0
0FC0
ENDCHAR
STARTCHAR 0055
ENCODING 85
SWIDTH 488 0
DWIDTH 19 0
BBX 17 23 1 0
BITMAP
FC1F80
FC1F80
FC1F80
FC1F80
FC1F80
FC1F80
FC1F80
FC1F80
FC1F80
FC1F80
FC1F80
FC1F80
FC1F80
FC1F80
FC1F80
FC1F80
FC1F80
FC1F80
FC1F80
FC1F80
FC1F80
FE3F80
3E3F00
ENDCHAR
STARTCHAR 0056
ENCODING 86
SWIDTH 488 0
DWIDTH 19 0
BBX 16 23 1 0
BITMAP
FC1F
7C3F
7C3F
7C3F
7E3E
7E3E
3E7E
3E7E
3F7C
3F7C
1F3C
1F3C
1F3C
1FB8
1F98
0F98
0F98
0FD0
0FC0
07C0
07C0
07C0
07E0
ENDCHAR
STARTCHAR 0057
ENCODING 87
SWIDTH 771 0
DWIDTH 30 0
BBX 28 23 1 0
BITMAP
FC1F83F0
FC1F83F0
FC1F83F0
FC1F83F0
FC1F83F0
FC1F83F0
FC1F83F0
FC1F83F0
FC1F83F0
FC1F83F0
FC1F83F0
FC1F83F0
FC1F83F0
FC1F83F0
FC1F83F0
FC1F83F0
FC1F83F0
FC1F83F0
FC1F83F0
FC1F83F0
FC1F83F0
FE3FC7F0
7E3FC7E0
ENDCHAR
STARTCHAR 0058
ENCODING 88
SWIDTH 462 0
DWIDTH 18 0
BBX 16 23 1 0
BITMAP
FC3F
7C3E
7E7E
3E7C
3F3C
1F38
1F98
0F90
0F80
07C0
07C0
07E0
03E0
0BF0
19F0
19F8
1CF8
3CFC
3E7C
3E7C
7E7E
7C3E
FC3F
ENDCHAR
STARTCHAR 0059
ENCODING 89
SWIDTH 488 0
DWIDTH 19 0
BBX 17 23 1 0
BITMAP
FC1F80
FC1F80
FC1F80
FC1F80
FC1F80
FC1F80
FC1F80
FC1F80
FC1F80
FC1F80
FC1F80
FE7F80
3E7F80
001F80
001F80
001F80
001F80
001F80
001F80
001F80
001F80
FE3F80
FE3F00
ENDCHAR
STARTCHAR 005A
ENCODING 90
SWIDTH 488 0
DWIDTH 19 0
BBX 17 23 1 0
BITMAP
FE7F00
FE7F00
00FE00
00FE00
00FC00
01FC00
01F800
01F800
03F800
03F000
07F000
07E000
07E000
0FE000
0FC000
1FC000
1F8000
1F8000
3F0000
3F0000
7F0000
7E7F80
7E7F80
ENDCHAR
STARTCHAR 005B
ENCODING 91
SWIDTH 334 0
DWIDTH 13 0
BBX 11 23 1 0
BITMAP
7FE0
FFE0
FC00
FC00
FC00
FC00
FC00
FC00
FC00
FC00
FC00
FC00
FC00
FC00
FC00
FC00
FC00
FC00
FC00
FC00
FC00
FFE0
7FE0
ENDCHAR
STARTCHAR 005C
ENCODING 92
SWIDTH 745 0
DWIDTH 29 0
BBX 25 23 2 0
BITMAP
FC000000
7C000000
7E000000
3F000000
1F800000
0FC00000
07E00000
03F00000
01F80000
00FC0000
007E0000
003F0000
003F0000
001F8000
000FC000
0007E000
0003F000
0001F800
0000FC00
00007E00
00003F00
00001F80
00001F80
ENDCHAR
STARTCHAR 005D
ENCODING 93
SWIDTH 334 0
DWIDTH 13 0
BBX 11 23 1 0
BITMAP
FFC0
FFE0
07E0
07E0
07E0
07E0
07E0
07E0
07E0
07E0
07E0
07E0
07E0
07E0
07E0
07E0
07E0
07E0
07E0
07E0
07E0
FFE0
FF80
ENDCHAR
STARTCHAR 0060
ENCODING 96
SWIDTH 205 0
DWIDTH 8 0
BBX 6 6 1 18
BITMAP
F0
70
38
18
08
04
ENDCHAR
STARTCHAR 0061
ENCODING 97
SWIDTH 488 0
DWIDTH 19 0
BBX 17 23 1 0
BITMAP
7E3F00
FE3F80
FC1F80
FC1F80
FC1F80
FC1F80
FC1F80
FC1F80
FC1F80
FC1F80
FE3F80
FE3F80
FE3F80
FC1F80
FC1F80
FC1F80
FC1F80
FC1F80
FC1F80
FC1F80
FC1F80
FC1F80
FC1F80
ENDCHAR
STARTCHAR 0062
ENCODING 98
SWIDTH 488 0
DWIDTH 19 0
BBX 17 23 1 0
BITMAP
FE3F00
FE3F80
FC1F80
FC1F80
FC1F80
FC1F80
FC1F80
FC1F80
FC1F80
FC1F80
FE3F00
FE3F00
FC1F80
FC1F80
FC1F80
FC1F80
FC1F80
FC1F80
FC1F80
FC1F80
FC1F80
FE3F80
FE3F00
ENDCHAR
STARTCHAR 0063
ENCODING 99
SWIDTH 385 0
DWIDTH 15 0
BBX 14 23 1 0
BITMAP
7E3C
FE3C
FC00
FC00
FC00
FC00
FC00
FC00
FC00
FC00
FC00
FC00
FC00
FC00
FC00
FC00
FC00
FC00
FC00
FC00
FC00
FE3C
7E3C
ENDCHAR
STARTCHAR 0064
ENCODING 100
SWIDTH 488 0
DWIDTH 19 0
BBX 17 23 1 0
BITMAP
FE3F00
FE3F80
FC1F80
FC1F80
FC1F80
FC1F80
FC1F80
FC1F80
FC1F80
FC1F80
FC1F80
FC1F80
FC1F80
FC1F80
FC1F80
FC1F80
FC1F80
FC1F80
FC1F80
FC1F80
FC1F80
FE3F80
FE3E00
ENDCHAR
STARTCHAR 0065
ENCODING 101
SWIDTH 437 0
DWIDTH 17 0
BBX 15 23 1 0
BITMAP
FE7E
FE7E
FC00
FC00
FC00
FC00
FC00
FC00
FC00
FC00
FC00
FE60
FE60
FC00
FC00
FC00
FC00
FC00
FC00
FC00
FC00
FE7E
FE7E
ENDCHAR
STARTCHAR 0066
ENCODING 102
SWIDTH 462 0
DWIDTH 18 0
BBX 16 23 1 0
BITMAP
FE7F
FE7F
FC00
FC00
FC00
FC00
FC00
FC00
FC00
FC00
FE60
FE60
FE60
FC00
FC00
FC00
FC00
FC00
FC00
FC00
FC00
FC00
FC00
ENDCHAR
STARTCHAR 0067
ENCODING 103
SWIDTH 488 0
DWIDTH 19 0
BBX 17 23 1 0
BITMAP
7F3F80
FF3F80
FC0000
FC0000
FC0000
FC0000
FC0000
FC0000
FC0000
FC0000
FC1F80
FC1F80
FC1F80
FC1F80
FC1F80
FC1F80
FC1F80
FC1F80
FC1F80
FC1F80
FC1F80
FE3F80
7E3F80
ENDCHAR
STARTCHAR 0068
ENCODING 104
SWIDTH 488 0
DWIDTH 19 0
BBX 17 23 1 0
BITMAP
FC1F80
FC1F80
FC1F80
FC1F80
FC1F80
FC1F80
FC1F80
FC1F80
FC1F80
FC1F80
FE3F80
FE3F80
FE3F80
FC1F80
FC1F80
FC1F80
FC1F80
FC1F80
FC1F80
FC1F80
FC1F80
FC1F80
FC1F80
ENDCHAR
STARTCHAR 0069
ENCODING 105
SWIDTH 205 0
DWIDTH 8 0
BBX 6 23 1 0
BITMAP
FC
FC
FC
FC
FC
FC
FC
FC
FC
FC
FC
FC
FC
FC
FC
FC
FC
FC
FC
FC
FC
FC
FC
ENDCHAR
STARTCHAR 006A
ENCODING 106
SWIDTH 334 0
DWIDTH 13 0
BBX 11 23 1 0
BITMAP
07E0
07E0
07E0
07E0
07E0
07E0
07E0
07E0
07E0
07E0
07E0
07E0
07E0
07E0
07E0
07E0
07E0
07E0
07E0
07E0
07E0
EFE0
EFC0
ENDCHAR
STARTCHAR 006B
ENCODING 107
SWIDTH 488 0
DWIDTH 19 0
BBX 17 23 1 0
BITMAP
FC3F00
FC7F00
FC7E00
FCFC00
FDF800
FBF000
F3F000
E7E000
CFC000
9F8000
3F0000
3F2000
7E6000
FCF000
F9F000
F1F800
F1F800
E4FC00
CCFE00
9C7E00
3C7F00
7C3F00
FC1F80
ENDCHAR
STARTCHAR 006C
ENCODING 108
SWIDTH 385 0
DWIDTH 15 0
BBX 13 23 1 0
BITMAP
FC00
FC00
FC00
FC00
FC00
FC00
FC00
FC00
FC00
FC00
FC00
FC00
FC00
FC00
FC00
FC00
FC00
FC00
FC00
FC00
FC00
FE78
FE78
ENDCHAR
STARTCHAR 006D
ENCODING 109
SWIDTH 771 0
DWIDTH 30 0
BBX 28 23 1 0
BITMAP
CF803F30
CF803F70
EFC03E70
E7C07E70
E7C07EF0
F7E07CF0
F3E0FCF0
FBE0FDF0
FBF0F9F0
F9F0F9F0
FDF1FBF0
FDF9F3F0
FCF9F3F0
FCF9F3F0
FCFDF3F0
FC7CE3F0
FC7CE3F0
FC7EE3F0
FC3E43F0
FC3F43F0
FC3F03F0
FC3F03F0
FC1F83F0
ENDCHAR
STARTCHAR 006E
ENCODING 110
SWIDTH 488 0
DWIDTH 19 0
BBX 17 23 1 0
BITMAP
FC1F80
7E1F80
7E1F80
3F1F80
3F1F80
9F9F80
9F9F80
CFCF80
CFCF80
E7E780
E7F780
F3F380
F3FB80
FBF980
F9FC80
FDFC80
FCFE00
FCFE00
FC7F00
FC7F00
FC3F80
FC3F80
FC1F80
ENDCHAR
STARTCHAR 006F
ENCODING 111
SWIDTH 488 0
DWIDTH 19 0
BBX 17 23 1 0
BITMAP
7E3F00
FE3F80
FC1F80
FC1F80
FC1F80
FC1F80
FC1F80
FC1F80
FC1F80
FC1F80
FC1F80
FC1F80
FC1F80
FC1F80
FC1F80
FC1F80
FC1F80
FC1F80
FC1F80
FC1F80
FC1F80
FE3F80
7E3F00
ENDCHAR
STARTCHAR 0070
ENCODING 112
SWIDTH 488 0
DWIDTH 19 0
BBX 17 23 1 0
BITMAP
FE3F00
FE3F80
FC1F80
FC1F80
FC1F80
FC1F80
FC1F80
FC1F80
FC1F80
FC1F80
FE3F80
FE3F00
FE3E00
FC0000
FC0000
FC0000
FC0000
FC0000
FC0000
FC0000
FC0000
FC0000
FC0000
ENDCHAR
STARTCHAR 0071
ENCODING 113
SWIDTH 540 0
DWIDTH 21 0
BBX 18 23 1 0
BITMAP
7E3F00
FE3F80
FC1F80
FC1F80
FC1F80
FC1F80
FC1F80
FC1F80
FC1F80
FC1F80
FC1F80
FC1F80
FC1F80
FC1F80
FC1F80
FC1F80
FC1F80
FC1F80
FC1F80
FC1F80
FC1F80
FE3FC0
7E3FC0
ENDCHAR
STARTCHAR 0072
ENCODING 114
SWIDTH 488 0
DWIDTH 19 0
BBX 17 23 1 0
BITMAP
FE3F00
FE3F80
FC1F80
FC1F80
FC1F80
FC1F80
FC1F80
FC1F80
FC1F80
FC1F80
FC1F80
FFFF00
FC0000
FDF000
FDF800
FCF800
FCFC00
FC7C00
FC7C00
FC7E00
FC3E00
FC3F00
FC1F00
ENDCHAR
STARTCHAR 0073
ENCODING 115
SWIDTH 488 0
DWIDTH 19 0
BBX 17 23 1 0
BITMAP
7E7F00
FE7F00
FC0000
FC0000
FC0000
FC0000
FC0000
FC0000
FC0000
FC0000
FE7F00
7E7F80
001F80
001F80
001F80
001F80
001F80
001F80
001F80
001F80
001F80
7E7F80
7E7F00
ENDCHAR
STARTCHAR 0074
ENCODING 116
SWIDTH 411 0
DWIDTH 16 0
BBX 13 23 1 0
BITMAP
CFD8
CFD8
0FC0
0FC0
0FC0
0FC0
0FC0
0FC0
0FC0
0FC0
0FC0
0FC0
0FC0
0FC0
0FC0
0FC0
0FC0
0FC0
0FC0
0FC0
0FC0
0FC0
0FC0
ENDCHAR
STARTCHAR 0075
ENCODING 117
SWIDTH 488 0
DWIDTH 19 0
BBX 17 23 1 0
BITMAP
FC1F80
FC1F80
FC1F80
FC1F80
FC1F80
FC1F80
FC1F80
FC1F80
FC1F80
FC1F80
FC1F80
FC1F80
FC1F80
FC1F80
FC1F80
FC1F80
FC1F80
FC1F80
FC1F80
FC1F80
FC1F80
FE3F80
3E3F00
ENDCHAR
STARTCHAR 0076
ENCODING 118
SWIDTH 488 0
DWIDTH 19 0
BBX 16 23 1 0
BITMAP
FC1F
7C3F
7C3F
7C3F
7E3E
7E3E
3E7E
3E7E
3F7C
3F7C
1F3C
1F3C
1F3C
1FB8
1F98
0F98
0F98
0FD0
0FC0
07C0
07C0
07C0
07E0
ENDCHAR
STARTCHAR 0077
ENCODING 119
SWIDTH 771 0
DWIDTH 30 0
BBX 28 23 1 0
BITMAP
FC1F83F0
FC1F83F0
FC1F83F0
FC1F83F0
FC1F83F0
FC1F83F0
FC1F83F0
FC1F83F0
FC1F83F0
FC1F83F0
FC1F83F0
FC1F83F0
FC1F83F0
FC1F83F0
FC1F83F0
FC1F83F0
FC1F83F0
FC1F83F0
FC1F83F0
FC1F83F0
FC1F83F0
FE3FC7F0
7E3FC7E0
ENDCHAR
STARTCHAR 0078
ENCODING 120
SWIDTH 462 0
DWIDTH 18 0
BBX 16 23 1 0
BITMAP
FC3F
7C3E
7E7E
3E7C
3F3C
1F38
1F98
0F90
0F80
07C0
07C0
07E0
03E0
0BF0
19F0
19F8
1CF8
3CFC
3E7C
3E7C
7E7E
7C3E
FC3F
ENDCHAR
STARTCHAR 0079
ENCODING 121
SWIDTH 488 0
DWIDTH 19 0
BBX 17 23 1 0
BITMAP
FC1F80
FC1F80
FC1F80
FC1F80
FC1F80
FC1F80
FC1F80
FC1F80
FC1F80
FC1F80
FC1F80
FE7F80
3E7F80
001F80
001F80
001F80
001F80
001F80
001F80
001F80
001F80
FE3F80
FE3F00
ENDCHAR
STARTCHAR 007A
ENCODING 122
SWIDTH 488 0
DWIDTH 19 0
BBX 17 23 1 0
BITMAP
FE7F00
FE7F00
00FE00
00FE00
00FC00
01FC00
01F800
01F800
03F800
03F000
07F000
07E000
07E000
0FE000
0FC000
1FC000
1F8000
1F8000
3F0000
3F0000
7F0000
7E7F80
7E7F80
ENDCHAR
STARTCHAR 007B
ENCODING 123
SWIDTH 334 0
DWIDTH 13 0
BBX 11 23 1 0
BITMAP
7FE0
FFE0
FC00
FC00
FC00
FC00
FC00
FC00
FC00
FC00
FC00
FC00
FC00
FC00
FC00
FC00
FC00
FC00
FC00
FC00
FC00
FFE0
7FE0
ENDCHAR
STARTCHAR 007C
ENCODING 124
SWIDTH 154 0
DWIDTH 6 0
BBX 3 33 1 -7
BITMAP
E0
E0
E0
E0
E0
E0
E0
E0
E0
E0
E0
E0
E0
E0
E0
E0
E0
E0
E0
E0
E0
E0
E0
E0
E0
E0
E0
E0
E0
E0
E0
E0
E0
ENDCHAR
STARTCHAR 007D
ENCODING 125
SWIDTH 334 0
DWIDTH 13 0
BBX 11 23 1 0
BITMAP
FFC0
FFE0
07E0
07E0
07E0
07E0
07E0
07E0
07E0
07E0
07E0
07E0
07E0
07E0
07E0
07E0
07E0
07E0
07E0
07E0
07E0
FFE0
FF80
ENDCHAR
STARTCHAR 00C0
ENCODING 192
SWIDTH 488 0
DWIDTH 19 0
BBX 17 23 1 0
BITMAP
7E3F00
FE3F80
FC1F80
FC1F80
FC1F80
FC1F80
FC1F80
FC1F80
FC1F80
FC1F80
FE3F80
FE3F80
FE3F80
FC1F80
FC1F80
FC1F80
FC1F80
FC1F80
FC1F80
FC1F80
FC1F80
FC1F80
FC1F80
ENDCHAR
STARTCHAR 00C1
ENCODING 193
SWIDTH 488 0
DWIDTH 19 0
BBX 17 23 1 0
BITMAP
FE7F80
FE7F80
FC0000
FC0000
FC0000
FC0000
FC0000
FC0000
FC0000
FC0000
FE7E00
FE7F80
FC1F80
FC1F80
FC1F80
FC1F80
FC1F80
FC1F80
FC1F80
FC1F80
FC1F80
FE7F80
FE7F00
ENDCHAR
STARTCHAR 00C2
ENCODING 194
SWIDTH 488 0
DWIDTH 19 0
BBX 17 23 1 0
BITMAP
FE3F00
FE3F80
FC1F80
FC1F80
FC1F80
FC1F80
FC1F80
FC1F80
FC1F80
FC1F80
FE3F00
FE3F00
FC1F80
FC1F80
FC1F80
FC1F80
FC1F80
FC1F80
FC1F80
FC1F80
FC1F80
FE3F80
FE3F00
ENDCHAR
STARTCHAR 00C3
ENCODING 195
SWIDTH 437 0
DWIDTH 17 0
BBX 15 23 1 0
BITMAP
FE7E
FE7E
FC00
FC00
FC00
FC00
FC00
FC00
FC00
FC00
FC00
FC00
FC00
FC00
FC00
FC00
FC00
FC00
FC00
FC00
FC00
FC00
FC00
ENDCHAR
STARTCHAR 00C4
ENCODING 196
SWIDTH 591 0
DWIDTH 23 0
BBX 19 23 2 0
BITMAP
3F1FC0
7F1FC0
7E0FC0
7E0FC0
7E0FC0
7E0FC0
7E0FC0
7E0FC0
7E0FC0
7E0FC0
7E0FC0
7E0FC0
7E0FC0
7E0FC0
7E0FC0
7E0FC0
7E0FC0
7E0FC0
7E0FC0
7E0FC0
7E0FC0
FF1FE0
FF1FE0
ENDCHAR
STARTCHAR 00C5
ENCODING 197
SWIDTH 437 0
DWIDTH 17 0
BBX 15 23 1 0
BITMAP
FE7E
FE7E
FC00
FC00
FC00
FC00
FC00
FC00
FC00
FC00
FC00
FE60
FE60
FC00
FC00
FC00
FC00
FC00
FC00
FC00
FC00
FE7E
FE7E
ENDCHAR
STARTCHAR 00C6
ENCODING 198
SWIDTH 797 0
DWIDTH 31 0
BBX 28 23 1 0
BITMAP
7E1F83F0
3F1F87E0
3F1F8FC0
1F9F9F80
0FCF9F80
07EF3F00
03F67E00
01F8FC00
01F9F800
00FDF800
007FF000
013FE400
031FCC00
039F9E00
07CF9F00
07E73F00
0FC23F80
1FD09F80
1F998FC0
3F1F8FC0
3F1F87E0
7E1F87F0
FE1F83F0
ENDCHAR
STARTCHAR 00C7
ENCODING 199
SWIDTH 488 0
DWIDTH 19 0
BBX 17 23 1 0
BITMAP
FF3F00
FF3F80
001F80
001F80
001F80
001F80
001F80
001F80
001F80
001F80
033F00
033F00
001F80
001F80
001F80
001F80
001F80
001F80
001F80
001F80
001F80
FF3F80
FF3F00
ENDCHAR
STARTCHAR 00C8
ENCODING 200
SWIDTH 488 0
DWIDTH 19 0
BBX 17 23 1 0
BITMAP
FC1F80
FC3F00
FC3F00
FC7E00
FC7E00
FCFC80
FCFC80
F9F980
FBF980
F3F380
F7F380
E7E780
EFE780
CFEF80
9FCF80
9FDF80
3F9F80
3F9F80
7F1F80
7F1F80
FE1F80
FE1F80
FC1F80
ENDCHAR
STARTCHAR 00C9
ENCODING 201
SWIDTH 488 0
DWIDTH 19 0
BBX 17 25 1 0
BITMAP
01C000
01C000
FD9F80
FDBF00
FD3F00
FD7E00
FC7E00
FCFC80
FCFC80
F9F980
FBF980
F3F380
F7F380
E7E780
EFE780
CFEF80
9FCF80
9FDF80
3F9F80
3F9F80
7F1F80
7F1F80
FE1F80
FE1F80
FC1F80
ENDCHAR
STARTCHAR 00CA
ENCODING 202
SWIDTH 488 0
DWIDTH 19 0
BBX 17 23 1 0
BITMAP
FC3F00
FC7F00
FC7E00
FCFC00
FDF800
FBF000
F3F000
E7E000
CFC000
9F8000
3F0000
3F2000
7E6000
FCF000
F9F000
F1F800
F1F800
E4FC00
CCFE00
9C7E00
3C7F00
7C3F00
FC1F80
ENDCHAR
STARTCHAR 00CB
ENCODING 203
SWIDTH 488 0
DWIDTH 19 0
BBX 16 23 1 0
BITMAP
03E0
03E0
03F0
01F0
09F0
09F0
09F8
09F8
1CF8
1CF8
1CFC
1EFC
1EFC
3E7C
3E7C
3E7E
3E7E
7E3E
7E3E
7C3F
7C3F
FC3F
FC1F
ENDCHAR
STARTCHAR 00CC
ENCODING 204
SWIDTH 771 0
DWIDTH 30 0
BBX 28 23 1 0
BITMAP
CF803F30
CF803F70
EFC03E70
E7C07E70
E7C07EF0
F7E07CF0
F3E0FCF0
FBE0FDF0
FBF0F9F0
F9F0F9F0
FDF1FBF0
FDF9F3F0
FCF9F3F0
FCF9F3F0
FCFDF3F0
FC7CE3F0
FC7CE3F0
FC7EE3F0
FC3E43F0
FC3F43F0
FC3F03F0
FC3F03F0
FC1F83F0
ENDCHAR
STARTCHAR 00CD
ENCODING 205
SWIDTH 488 0
DWIDTH 19 0
BBX 17 23 1 0
BITMAP
FC1F80
FC1F80
FC1F80
FC1F80
FC1F80
FC1F80
FC1F80
FC1F80
FC1F80
FC1F80
FE3F80
FE3F80
FE3F80
FC1F80
FC1F80
FC1F80
FC1F80
FC1F80
FC1F80
FC1F80
FC1F80
FC1F80
FC1F80
ENDCHAR
STARTCHAR 00CE
ENCODING 206
SWIDTH 488 0
DWIDTH 19 0
BBX 17 23 1 0
BITMAP
7E3F00
FE3F80
FC1F80
FC1F80
FC1F80
FC1F80
FC1F80
FC1F80
FC1F80
FC1F80
FC1F80
FC1F80
FC1F80
FC1F80
FC1F80
FC1F80
FC1F80
FC1F80
FC1F80
FC1F80
FC1F80
FE3F80
7E3F00
ENDCHAR
STARTCHAR 00CF
ENCODING 207
SWIDTH 488 0
DWIDTH 19 0
BBX 17 23 1 0
BITMAP
FE3F80
FE3F80
FC1F80
FC1F80
FC1F80
FC1F80
FC1F80
FC1F80
FC1F80
FC1F80
FC1F80
FC1F80
FC1F80
FC1F80
FC1F80
FC1F80
FC1F80
FC1F80
FC1F80
FC1F80
FC1F80
FC1F80
FC1F80
ENDCHAR
STARTCHAR 00D0
ENCODING 208
SWIDTH 488 0
DWIDTH 19 0
BBX 17 23 1 0
BITMAP
FE3F00
FE3F80
FC1F80
FC1F80
FC1F80
FC1F80
FC1F80
FC1F80
FC1F80
FC1F80
FE3F80
FE3F00
FE3E00
FC0000
FC0000
FC0000
FC0000
FC0000
FC0000
FC0000
FC0000
FC0000
FC0000
ENDCHAR
STARTCHAR 00D1
ENCODING 209
SWIDTH 385 0
DWIDTH 15 0
BBX 14 23 1 0
BITMAP
7E3C
FE3C
FC00
FC00
FC00
FC00
FC00
FC00
FC00
FC00
FC00
FC00
FC00
FC00
FC00
FC00
FC00
FC00
FC00
FC00
FC00
FE3C
7E3C
ENDCHAR
STARTCHAR 00D2
ENCODING 210
SWIDTH 411 0
DWIDTH 16 0
BBX 13 23 1 0
BITMAP
CFD8
CFD8
0FC0
0FC0
0FC0
0FC0
0FC0
0FC0
0FC0
0FC0
0FC0
0FC0
0FC0
0FC0
0FC0
0FC0
0FC0
0FC0
0FC0
0FC0
0FC0
0FC0
0FC0
ENDCHAR
STARTCHAR 00D3
ENCODING 211
SWIDTH 488 0
DWIDTH 19 0
BBX 17 23 1 0
BITMAP
FC1F80
FC1F80
FC1F80
FC1F80
FC1F80
FC1F80
FC1F80
FC1F80
FC1F80
FC1F80
FC1F80
FE7F80
3E7F80
001F80
001F80
001F80
001F80
001F80
001F80
001F80
001F80
FE3F80
FE3F00
ENDCHAR
STARTCHAR 00D4
ENCODING 212
SWIDTH 668 0
DWIDTH 26 0
BBX 23 23 1 0
BITMAP
7CFE7C
FCFE7E
FC7E7E
FC7E7E
FC7E7E
FC7E7E
FC7E7E
FC7E7E
FC7E7E
FC7E7E
FCFE7E
7CFE7C
3CFE78
007E00
007E00
007E00
007E00
007E00
007E00
007E00
007E00
007E00
007E00
ENDCHAR
STARTCHAR 00D5
ENCODING 213
SWIDTH 462 0
DWIDTH 18 0
BBX 16 23 1 0
BITMAP
FC3F
7C3E
7E7E
3E7C
3F3C
1F38
1F98
0F90
0F80
07C0
07C0
07E0
03E0
0BF0
19F0
19F8
1CF8
3CFC
3E7C
3E7C
7E7E
7C3E
FC3F
ENDCHAR
STARTCHAR 00D6
ENCODING 214
SWIDTH 540 0
DWIDTH 21 0
BBX 18 23 1 0
BITMAP
FC1F80
FC1F80
FC1F80
FC1F80
FC1F80
FC1F80
FC1F80
FC1F80
FC1F80
FC1F80
FC1F80
FC1F80
FC1F80
FC1F80
FC1F80
FC1F80
FC1F80
FC1F80
FC1F80
FC1F80
FC1F80
FE3FC0
7E3FC0
ENDCHAR
STARTCHAR 00D7
ENCODING 215
SWIDTH 488 0
DWIDTH 19 0
BBX 17 23 1 0
BITMAP
FC1F80
FC1F80
FC1F80
FC1F80
FC1F80
FC1F80
FC1F80
FC1F80
FC1F80
FC1F80
FE3F80
FE3F80
FE3F80
001F80
001F80
001F80
001F80
001F80
001F80
001F80
001F80
001F80
001F80
ENDCHAR
STARTCHAR 00D8
ENCODING 216
SWIDTH 771 0
DWIDTH 30 0
BBX 28 23 1 0
BITMAP
FC1F83F0
FC1F83F0
FC1F83F0
FC1F83F0
FC1F83F0
FC1F83F0
FC1F83F0
FC1F83F0
FC1F83F0
FC1F83F0
FC1F83F0
FC1F83F0
FC1F83F0
FC1F83F0
FC1F83F0
FC1F83F0
FC1F83F0
FC1F83F0
FC1F83F0
FC1F83F0
FC1F83F0
FE3FC7F0
7E3FC7F0
ENDCHAR
STARTCHAR 00D9
ENCODING 217
SWIDTH 822 0
DWIDTH 32 0
BBX 29 23 1 0
BITMAP
FC1F83F0
FC1F83F0
FC1F83F0
FC1F83F0
FC1F83F0
FC1F83F0
FC1F83F0
FC1F83F0
FC1F83F0
FC1F83F0
FC1F83F0
FC1F83F0
FC1F83F0
FC1F83F0
FC1F83F0
FC1F83F0
FC1F83F0
FC1F83F0
FC1F83F0
FC1F83F0
FC1F83F0
FE3FC7F8
7E3FC7F8
ENDCHAR
STARTCHAR 00DA
ENCODING 218
SWIDTH 540 0
DWIDTH 21 0
BBX 18 23 2 0
BITMAP
FE0000
FE0000
7E0000
7E0000
7E0000
7E0000
7E0000
7E0000
7E0000
7E0000
7F1F00
7F1FC0
7E0FC0
7E0FC0
7E0FC0
7E0FC0
7E0FC0
7E0FC0
7E0FC0
7E0FC0
7E0FC0
7F1FC0
7F1F80
ENDCHAR
STARTCHAR 00DB
ENCODING 219
SWIDTH 694 0
DWIDTH 27 0
BBX 25 23 1 0
BITMAP
FC001F80
FC001F80
FC001F80
FC001F80
FC001F80
FC001F80
FC001F80
FC001F80
FC001F80
FC001F80
FE3E1F80
FE3F9F80
FC1F9F80
FC1F9F80
FC1F9F80
FC1F9F80
FC1F9F80
FC1F9F80
FC1F9F80
FC1F9F80
FC1F9F80
FE3F9F80
FE3F1F80
ENDCHAR
STARTCHAR 00DC
ENCODING 220
SWIDTH 488 0
DWIDTH 19 0
BBX 17 23 1 0
BITMAP
FC0000
FC0000
FC0000
FC0000
FC0000
FC0000
FC0000
FC0000
FC0000
FC0000
FE3E00
FE3F80
FC1F80
FC1F80
FC1F80
FC1F80
FC1F80
FC1F80
FC1F80
FC1F80
FC1F80
FE3F80
FE3F00
ENDCHAR
STARTCHAR 00DD
ENCODING 221
SWIDTH 488 0
DWIDTH 19 0
BBX 17 23 1 0
BITMAP
FE3F00
FE3F80
FC1F80
FC1F80
001F80
001F80
001F80
001F80
001F80
001F80
001F80
063F80
063F80
001F80
001F80
001F80
001F80
001F80
001F80
FC1F80
FC1F80
FE3F80
FE3F00
ENDCHAR
STARTCHAR 00DE
ENCODING 222
SWIDTH 694 0
DWIDTH 27 0
BBX 25 23 1 0
BITMAP
FC3F3F00
FC7F3F80
FC7E1F80
FC7E1F80
FC7E1F80
FC7E1F80
FC7E1F80
FC7E1F80
FC7E1F80
FC7E1F80
FE7E1F80
FE7E1F80
FE7E1F80
FC7E1F80
FC7E1F80
FC7E1F80
FC7E1F80
FC7E1F80
FC7E1F80
FC7E1F80
FC7E1F80
FC7F3F80
FC3F3F00
ENDCHAR
STARTCHAR 00DF
ENCODING 223
SWIDTH 488 0
DWIDTH 19 0
BBX 17 23 1 0
BITMAP
7E3F80
FE3F80
FC1F80
FC1F80
FC1F80
FC1F80
FC1F80
FC1F80
FC1F80
FC1F80
FC1F80
7FFF80
001F80
0FDF80
0F9F80
0F9F80
1F9F80
1F1F80
3F1F80
3E1F80
3E1F80
7E1F80
7C1F80
ENDCHAR
STARTCHAR 00E0
ENCODING 224
SWIDTH 488 0
DWIDTH 19 0
BBX 17 23 1 0
BITMAP
7E3F00
FE3F80
FC1F80
FC1F80
FC1F80
FC1F80
FC1F80
FC1F80
FC1F80
FC1F80
FE3F80
FE3F80
FE3F80
FC1F80
FC1F80
FC1F80
FC1F80
FC1F80
FC1F80
FC1F80
FC1F80
FC1F80
FC1F80
ENDCHAR
STARTCHAR 00E1
ENCODING 225
SWIDTH 488 0
DWIDTH 19 0
BBX 17 23 1 0
BITMAP
FE7F80
FE7F80
FC0000
FC0000
FC0000
FC0000
FC0000
FC0000
FC0000
FC0000
FE7E00
FE7F80
FC1F80
FC1F80
FC1F80
FC1F80
FC1F80
FC1F80
FC1F80
FC1F80
FC1F80
FE7F80
FE7F00
ENDCHAR
STARTCHAR 00E2
ENCODING 226
SWIDTH 488 0
DWIDTH 19 0
BBX 17 23 1 0
BITMAP
FE3F00
FE3F80
FC1F80
FC1F80
FC1F80
FC1F80
FC1F80
FC1F80
FC1F80
FC1F80
FE3F00
FE3F00
FC1F80
FC1F80
FC1F80
FC1F80
FC1F80
FC1F80
FC1F80
FC1F80
FC1F80
FE3F80
FE3F00
ENDCHAR
STARTCHAR 00E3
ENCODING 227
SWIDTH 437 0
DWIDTH 17 0
BBX 15 23 1 0
BITMAP
FE7E
FE7E
FC00
FC00
FC00
FC00
FC00
FC00
FC00
FC00
FC00
FC00
FC00
FC00
FC00
FC00
FC00
FC00
FC00
FC00
FC00
FC00
FC00
ENDCHAR
STARTCHAR 00E4
ENCODING 228
SWIDTH 591 0
DWIDTH 23 0
BBX 19 23 2 0
BITMAP
3F1FC0
7F1FC0
7E0FC0
7E0FC0
7E0FC0
7E0FC0
7E0FC0
7E0FC0
7E0FC0
7E0FC0
7E0FC0
7E0FC0
7E0FC0
7E0FC0
7E0FC0
7E0FC0
7E0FC0
7E0FC0
7E0FC0
7E0FC0
7E0FC0
FF1FE0
FF1FE0
ENDCHAR
STARTCHAR 00E5
ENCODING 229
SWIDTH 437 0
DWIDTH 17 0
BBX 15 23 1 0
BITMAP
FE7E
FE7E
FC00
FC00
FC00
FC00
FC00
FC00
FC00
FC00
FC00
FE60
FE60
FC00
FC00
FC00
FC00
FC00
FC00
FC00
FC00
FE7E
FE7E
ENDCHAR
STARTCHAR 00E6
ENCODING 230
SWIDTH 797 0
DWIDTH 31 0
BBX 28 23 1 0
BITMAP
7E1F83F0
3F1F87E0
3F1F8FC0
1F9F9F80
0FCF9F80
07EF3F00
03F67E00
01F8FC00
01F9F800
00FDF800
007FF000
013FE400
031FCC00
039F9E00
07CF9F00
07E73F00
0FC23F80
1FD09F80
1F998FC0
3F1F8FC0
3F1F87E0
7E1F87F0
FE1F83F0
ENDCHAR
STARTCHAR 00E7
ENCODING 231
SWIDTH 488 0
DWIDTH 19 0
BBX 17 23 1 0
BITMAP
FF3F00
FF3F80
001F80
001F80
001F80
001F80
001F80
001F80
001F80
001F80
033F00
033F00
001F80
001F80
001F80
001F80
001F80
001F80
001F80
001F80
001F80
FF3F80
FF3F00
ENDCHAR
STARTCHAR 00E8
ENCODING 232
SWIDTH 488 0
DWIDTH 19 0
BBX 17 23 1 0
BITMAP
FC1F80
FC3F00
FC3F00
FC7E00
FC7E00
FCFC80
FCFC80
F9F980
FBF980
F3F380
F7F380
E7E780
EFE780
CFEF80
9FCF80
9FDF80
3F9F80
3F9F80
7F1F80
7F1F80
FE1F80
FE1F80
FC1F80
ENDCHAR
STARTCHAR 00E9
ENCODING 233
SWIDTH 488 0
DWIDTH 19 0
BBX 17 25 1 0
BITMAP
01C000
01C000
FD9F80
FDBF00
FD3F00
FD7E00
FC7E00
FCFC80
FCFC80
F9F980
FBF980
F3F380
F7F380
E7E780
EFE780
CFEF80
9FCF80
9FDF80
3F9F80
3F9F80
7F1F80
7F1F80
FE1F80
FE1F80
FC1F80
ENDCHAR
STARTCHAR 00EA
ENCODING 234
SWIDTH 488 0
DWIDTH 19 0
BBX 17 23 1 0
BITMAP
FC3F00
FC7F00
FC7E00
FCFC00
FDF800
FBF000
F3F000
E7E000
CFC000
9F8000
3F0000
3F2000
7E6000
FCF000
F9F000
F1F800
F1F800
E4FC00
CCFE00
9C7E00
3C7F00
7C3F00
FC1F80
ENDCHAR
STARTCHAR 00EB
ENCODING 235
SWIDTH 488 0
DWIDTH 19 0
BBX 16 23 1 0
BITMAP
03E0
03E0
03F0
01F0
09F0
09F0
09F8
09F8
1CF8
1CF8
1CFC
1EFC
1EFC
3E7C
3E7C
3E7E
3E7E
7E3E
7E3E
7C3F
7C3F
FC3F
FC1F
ENDCHAR
STARTCHAR 00EC
ENCODING 236
SWIDTH 771 0
DWIDTH 30 0
BBX 28 23 1 0
BITMAP
CF803F30
CF803F70
EFC03E70
E7C07E70
E7C07EF0
F7E07CF0
F3E0FCF0
FBE0FDF0
FBF0F9F0
F9F0F9F0
FDF1FBF0
FDF9F3F0
FCF9F3F0
FCF9F3F0
FCFDF3F0
FC7CE3F0
FC7CE3F0
FC7EE3F0
FC3E43F0
FC3F43F0
FC3F03F0
FC3F03F0
FC1F83F0
ENDCHAR
STARTCHAR 00ED
ENCODING 237
SWIDTH 488 0
DWIDTH 19 0
BBX 17 23 1 0
BITMAP
FC1F80
FC1F80
FC1F80
FC1F80
FC1F80
FC1F80
FC1F80
FC1F80
FC1F80
FC1F80
FE3F80
FE3F80
FE3F80
FC1F80
FC1F80
FC1F80
FC1F80
FC1F80
FC1F80
FC1F80
FC1F80
FC1F80
FC1F80
ENDCHAR
STARTCHAR 00EE
ENCODING 238
SWIDTH 488 0
DWIDTH 19 0
BBX 17 23 1 0
BITMAP
7E3F00
FE3F80
FC1F80
FC1F80
FC1F80
FC1F80
FC1F80
FC1F80
FC1F80
FC1F80
FC1F80
FC1F80
FC1F80
FC1F80
FC1F80
FC1F80
FC1F80
FC1F80
FC1F80
FC1F80
FC1F80
FE3F80
7E3F00
ENDCHAR
STARTCHAR 00EF
ENCODING 239
SWIDTH 488 0
DWIDTH 19 0
BBX 17 23 1 0
BITMAP
FE3F80
FE3F80
FC1F80
FC1F80
FC1F80
FC1F80
FC1F80
FC1F80
FC1F80
FC1F80
FC1F80
FC1F80
FC1F80
FC1F80
FC1F80
FC1F80
FC1F80
FC1F80
FC1F80
FC1F80
FC1F80
FC1F80
FC1F80
ENDCHAR
STARTCHAR 00F0
ENCODING 240
SWIDTH 488 0
DWIDTH 19 0
BBX 17 23 1 0
BITMAP
FE3F00
FE3F80
FC1F80
FC1F80
FC1F80
FC1F80
FC1F80
FC1F80
FC1F80
FC1F80
FE3F80
FE3F00
FE3E00
FC0000
FC0000
FC0000
FC0000
FC0000
FC0000
FC0000
FC0000
FC0000
FC0000
ENDCHAR
STARTCHAR 00F1
ENCODING 241
SWIDTH 385 0
DWIDTH 15 0
BBX 14 23 1 0
BITMAP
7E3C
FE3C
FC00
FC00
FC00
FC00
FC00
FC00
FC00
FC00
FC00
FC00
FC00
FC00
FC00
FC00
FC00
FC00
FC00
FC00
FC00
FE3C
7E3C
ENDCHAR
STARTCHAR 00F2
ENCODING 242
SWIDTH 411 0
DWIDTH 16 0
BBX 13 23 1 0
BITMAP
CFD8
CFD8
0FC0
0FC0
0FC0
0FC0
0FC0
0FC0
0FC0
0FC0
0FC0
0FC0
0FC0
0FC0
0FC0
0FC0
0FC0
0FC0
0FC0
0FC0
0FC0
0FC0
0FC0
ENDCHAR
STARTCHAR 00F3
ENCODING 243
SWIDTH 488 0
DWIDTH 19 0
BBX 17 23 1 0
BITMAP
FC1F80
FC1F80
FC1F80
FC1F80
FC1F80
FC1F80
FC1F80
FC1F80
FC1F80
FC1F80
FC1F80
FE7F80
3E7F80
001F80
001F80
001F80
001F80
001F80
001F80
001F80
001F80
FE3F80
FE3F00
ENDCHAR
STARTCHAR 00F4
ENCODING 244
SWIDTH 668 0
DWIDTH 26 0
BBX 23 23 1 0
BITMAP
7CFE7C
FCFE7E
FC7E7E
FC7E7E
FC7E7E
FC7E7E
FC7E7E
FC7E7E
FC7E7E
FC7E7E
FCFE7E
7CFE7C
3CFE78
007E00
007E00
007E00
007E00
007E00
007E00
007E00
007E00
007E00
007E00
ENDCHAR
STARTCHAR 00F5
ENCODING 245
SWIDTH 462 0
DWIDTH 18 0
BBX 16 23 1 0
BITMAP
FC3F
7C3E
7E7E
3E7C
3F3C
1F38
1F98
0F90
0F80
07C0
07C0
07E0
03E0
0BF0
19F0
19F8
1CF8
3CFC
3E7C
3E7C
7E7E
7C3E
FC3F
ENDCHAR
STARTCHAR 00F6
ENCODING 246
SWIDTH 540 0
DWIDTH 21 0
BBX 18 23 1 0
BITMAP
FC1F80
FC1F80
FC1F80
FC1F80
FC1F80
FC1F80
FC1F80
FC1F80
FC1F80
FC1F80
FC1F80
FC1F80
FC1F80
FC1F80
FC1F80
FC1F80
FC1F80
FC1F80
FC1F80
FC1F80
FC1F80
FE3FC0
7E3FC0
ENDCHAR
STARTCHAR 00F7
ENCODING 247
SWIDTH 488 0
DWIDTH 19 0
BBX 17 23 1 0
BITMAP
FC1F80
FC1F80
FC1F80
FC1F80
FC1F80
FC1F80
FC1F80
FC1F80
FC1F80
FC1F80
FE3F80
FE3F80
FE3F80
001F80
001F80
001F80
001F80
001F80
001F80
001F80
001F80
001F80
001F80
ENDCHAR
STARTCHAR 00F8
ENCODING 248
SWIDTH 771 0
DWIDTH 30 0
BBX 28 23 1 0
BITMAP
FC1F83F0
FC1F83F0
FC1F83F0
FC1F83F0
FC1F83F0
FC1F83F0
FC1F83F0
FC1F83F0
FC1F83F0
FC1F83F0
FC1F83F0
FC1F83F0
FC1F83F0
FC1F83F0
FC1F83F0
FC1F83F0
FC1F83F0
FC1F83F0
FC1F83F0
FC1F83F0
FC1F83F0
FE3FC7F0
7E3FC7F0
ENDCHAR
STARTCHAR 00F9
ENCODING 249
SWIDTH 822 0
DWIDTH 32 0
BBX 29 23 1 0
BITMAP
FC1F83F0
FC1F83F0
FC1F83F0
FC1F83F0
FC1F83F0
FC1F83F0
FC1F83F0
FC1F83F0
FC1F83F0
FC1F83F0
FC1F83F0
FC1F83F0
FC1F83F0
FC1F83F0
FC1F83F0
FC1F83F0
FC1F83F0
FC1F83F0
FC1F83F0
FC1F83F0
FC1F83F0
FE3FC7F8
7E3FC7F8
ENDCHAR
STARTCHAR 00FA
ENCODING 250
SWIDTH 540 0
DWIDTH 21 0
BBX 18 23 2 0
BITMAP
FE0000
FE0000
7E0000
7E0000
7E0000
7E0000
7E0000
7E0000
7E0000
7E0000
7F1F00
7F1FC0
7E0FC0
7E0FC0
7E0FC0
7E0FC0
7E0FC0
7E0FC0
7E0FC0
7E0FC0
7E0FC0
7F1FC0
7F1F80
ENDCHAR
STARTCHAR 00FB
ENCODING 251
SWIDTH 694 0
DWIDTH 27 0
BBX 25 23 1 0
BITMAP
FC001F80
FC001F80
FC001F80
FC001F80
FC001F80
FC001F80
FC001F80
FC001F80
FC001F80
FC001F80
FE3E1F80
FE3F9F80
FC1F9F80
FC1F9F80
FC1F9F80
FC1F9F80
FC1F9F80
FC1F9F80
FC1F9F80
FC1F9F80
FC1F9F80
FE3F9F80
FE3F1F80
ENDCHAR
STARTCHAR 00FC
ENCODING 252
SWIDTH 488 0
DWIDTH 19 0
BBX 17 23 1 0
BITMAP
FC0000
FC0000
FC0000
FC0000
FC0000
FC0000
FC0000
FC0000
FC0000
FC0000
FE3E00
FE3F80
FC1F80
FC1F80
FC1F80
FC1F80
FC1F80
FC1F80
FC1F80
FC1F80
FC1F80
FE3F80
FE3F00
ENDCHAR
STARTCHAR 00FD
ENCODING 253
SWIDTH 488 0
DWIDTH 19 0
BBX 17 23 1 0
BITMAP
FE3F00
FE3F80
FC1F80
FC1F80
001F80
001F80
001F80
001F80
001F80
001F80
001F80
063F80
063F80
001F80
001F80
001F80
001F80
001F80
001F80
FC1F80
FC1F80
FE3F80
FE3F00
ENDCHAR
STARTCHAR 00FE
ENCODING 254
SWIDTH 694 0
DWIDTH 27 0
BBX 25 23 1 0
BITMAP
FC3F3F00
FC7F3F80
FC7E1F80
FC7E1F80
FC7E1F80
FC7E1F80
FC7E1F80
FC7E1F80
FC7E1F80
FC7E1F80
FE7E1F80
FE7E1F80
FE7E1F80
FC7E1F80
FC7E1F80
FC7E1F80
FC7E1F80
FC7E1F80
FC7E1F80
FC7E1F80
FC7E1F80
FC7F3F80
FC3F3F00
ENDCHAR
STARTCHAR 00FF
ENCODING 255
SWIDTH 488 0
DWIDTH 19 0
BBX 17 23 1 0
BITMAP
7E3F80
FE3F80
FC1F80
FC1F80
FC1F80
FC1F80
FC1F80
FC1F80
FC1F80
FC1F80
FC1F80
7FFF80
001F80
0FDF80
0F9F80
0F9F80
1F9F80
1F1F80
3F1F80
3E1F80
3E1F80
7E1F80
7C1F80
ENDCHAR
STARTCHAR 0410
ENCODING 1040
SWIDTH 488 0
DWIDTH 19 0
BBX 17 23 1 0
BITMAP
7E3F00
FE3F80
FC1F80
FC1F80
FC1F80
FC1F80
FC1F80
FC1F80
FC1F80
FC1F80
FE3F80
FE3F80
FE3F80
FC1F80
FC1F80
FC1F80
FC1F80
FC1F80
FC1F80
FC1F80
FC1F80
FC1F80
FC1F80
ENDCHAR
STARTCHAR 0411
ENCODING 1041
SWIDTH 488 0
DWIDTH 19 0
BBX 17 23 1 0
BITMAP
FE7F80
FE7F80
FC0000
FC0000
FC0000
FC0000
FC0000
FC0000
FC0000
FC0000
FE7E00
FE7F80
FC1F80
FC1F80
FC1F80
FC1F80
FC1F80
FC1F80
FC1F80
FC1F80
FC1F80
FE7F80
FE7F00
ENDCHAR
STARTCHAR 0412
ENCODING 1042
SWIDTH 488 0
DWIDTH 19 0
BBX 17 23 1 0
BITMAP
FE3F00
FE3F80
FC1F80
FC1F80
FC1F80
FC1F80
FC1F80
FC1F80
FC1F80
FC1F80
FE3F00
FE3F00
FC1F80
FC1F80
FC1F80
FC1F80
FC1F80
FC1F80
FC1F80
FC1F80
FC1F80
FE3F80
FE3F00
ENDCHAR
STARTCHAR 0413
ENCODING 1043
SWIDTH 437 0
DWIDTH 17 0
BBX 15 23 1 0
BITMAP
FE7E
FE7E
FC00
FC00
FC00
FC00
FC00
FC00
FC00
FC00
FC00
FC00
FC00
FC00
FC00
FC00
FC00
FC00
FC00
FC00
FC00
FC00
FC00
ENDCHAR
STARTCHAR 0414
ENCODING 1044
SWIDTH 591 0
DWIDTH 23 0
BBX 19 23 2 0
BITMAP
3F1FC0
7F1FC0
7E0FC0
7E0FC0
7E0FC0
7E0FC0
7E0FC0
7E0FC0
7E0FC0
7E0FC0
7E0FC0
7E0FC0
7E0FC0
7E0FC0
7E0FC0
7E0FC0
7E0FC0
7E0FC0
7E0FC0
7E0FC0
7E0FC0
FF1FE0
FF1FE0
ENDCHAR
STARTCHAR 0415
ENCODING 1045
SWIDTH 437 0
DWIDTH 17 0
BBX 15 23 1 0
BITMAP
FE7E
FE7E
FC00
FC00
FC00
FC00
FC00
FC00
FC00
FC00
FC00
FE60
FE60
FC00
FC00
FC00
FC00
FC00
FC00
FC00
FC00
FE7E
FE7E
ENDCHAR
STARTCHAR 0416
ENCODING 1046
SWIDTH 797 0
DWIDTH 31 0
BBX 28 23 1 0
BITMAP
7E1F83F0
3F1F87E0
3F1F8FC0
1F9F9F80
0FCF9F80
07EF3F00
03F67E00
01F8FC00
01F9F800
00FDF800
007FF000
013FE400
031FCC00
039F9E00
07CF9F00
07E73F00
0FC23F80
1FD09F80
1F998FC0
3F1F8FC0
3F1F87E0
7E1F87F0
FE1F83F0
ENDCHAR
STARTCHAR 0417
ENCODING 1047
SWIDTH 488 0
DWIDTH 19 0
BBX 17 23 1 0
BITMAP
FF3F00
FF3F80
001F80
001F80
001F80
001F80
001F80
001F80
001F80
001F80
033F00
033F00
001F80
001F80
001F80
001F80
001F80
001F80
001F80
001F80
001F80
FF3F80
FF3F00
ENDCHAR
STARTCHAR 0418
ENCODING 1048
SWIDTH 488 0
DWIDTH 19 0
BBX 17 23 1 0
BITMAP
FC1F80
FC3F00
FC3F00
FC7E00
FC7E00
FCFC80
FCFC80
F9F980
FBF980
F3F380
F7F380
E7E780
EFE780
CFEF80
9FCF80
9FDF80
3F9F80
3F9F80
7F1F80
7F1F80
FE1F80
FE1F80
FC1F80
ENDCHAR
STARTCHAR 0419
ENCODING 1049
SWIDTH 488 0
DWIDTH 19 0
BBX 17 25 1 0
BITMAP
01C000
01C000
FD9F80
FDBF00
FD3F00
FD7E00
FC7E00
FCFC80
FCFC80
F9F980
FBF980
F3F380
F7F380
E7E780
EFE780
CFEF80
9FCF80
9FDF80
3F9F80
3F9F80
7F1F80
7F1F80
FE1F80
FE1F80
FC1F80
ENDCHAR
STARTCHAR 041A
ENCODING 1050
SWIDTH 488 0
DWIDTH 19 0
BBX 17 23 1 0
BITMAP
FC3F00
FC7F00
FC7E00
FCFC00
FDF800
FBF000
F3F000
E7E000
CFC000
9F8000
3F0000
3F2000
7E6000
FCF000
F9F000
F1F800
F1F800
E4FC00
CCFE00
9C7E00
3C7F00
7C3F00
FC1F80
ENDCHAR
STARTCHAR 041B
ENCODING 1051
SWIDTH 488 0
DWIDTH 19 0
BBX 16 23 1 0
BITMAP
03E0
03E0
03F0
01F0
09F0
09F0
09F8
09F8
1CF8
1CF8
1CFC
1EFC
1EFC
3E7C
3E7C
3E7E
3E7E
7E3E
7E3E
7C3F
7C3F
FC3F
FC1F
ENDCHAR
STARTCHAR 041C
ENCODING 1052
SWIDTH 771 0
DWIDTH 30 0
BBX 28 23 1 0
BITMAP
CF803F30
CF803F70
EFC03E70
E7C07E70
E7C07EF0
F7E07CF0
F3E0FCF0
FBE0FDF0
FBF0F9F0
F9F0F9F0
FDF1FBF0
FDF9F3F0
FCF9F3F0
FCF9F3F0
FCFDF3F0
FC7CE3F0
FC7CE3F0
FC7EE3F0
FC3E43F0
FC3F43F0
FC3F03F0
FC3F03F0
FC1F83F0
ENDCHAR
STARTCHAR 041D
ENCODING 1053
SWIDTH 488 0
DWIDTH 19 0
BBX 17 23 1 0
BITMAP
FC1F80
FC1F80
FC1F80
FC1F80
FC1F80
FC1F80
FC1F80
FC1F80
FC1F80
FC1F80
FE3F80
FE3F80
FE3F80
FC1F80
FC1F80
FC1F80
FC1F80
FC1F80
FC1F80
FC1F80
FC1F80
FC1F80
FC1F80
ENDCHAR
STARTCHAR 041E
ENCODING 1054
SWIDTH 488 0
DWIDTH 19 0
BBX 17 23 1 0
BITMAP
7E3F00
FE3F80
FC1F80
FC1F80
FC1F80
FC1F80
FC1F80
FC1F80
FC1F80
FC1F80
FC1F80
FC1F80
FC1F80
FC1F80
FC1F80
FC1F80
FC1F80
FC1F80
FC1F80
FC1F80
FC1F80
FE3F80
7E3F00
ENDCHAR
STARTCHAR 041F
ENCODING 1055
SWIDTH 488 0
DWIDTH 19 0
BBX 17 23 1 0
BITMAP
FE3F80
FE3F80
FC1F80
FC1F80
FC1F80
FC1F80
FC1F80
FC1F80
FC1F80
FC1F80
FC1F80
FC1F80
FC1F80
FC1F80
FC1F80
FC1F80
FC1F80
FC1F80
FC1F80
FC1F80
FC1F80
FC1F80
FC1F80
ENDCHAR
STARTCHAR 0420
ENCODING 1056
SWIDTH 488 0
DWIDTH 19 0
BBX 17 23 1 0
BITMAP
FE3F00
FE3F80
FC1F80
FC1F80
FC1F80
FC1F80
FC1F80
FC1F80
FC1F80
FC1F80
FE3F80
FE3F00
FE3E00
FC0000
FC0000
FC0000
FC0000
FC0000
FC0000
FC0000
FC0000
FC0000
FC0000
ENDCHAR
STARTCHAR 0421
ENCODING 1057
SWIDTH 385 0
DWIDTH 15 0
BBX 14 23 1 0
BITMAP
7E3C
FE3C
FC00
FC00
FC00
FC00
FC00
FC00
FC00
FC00
FC00
FC00
FC00
FC00
FC00
FC00
FC00
FC00
FC00
FC00
FC00
FE3C
7E3C
ENDCHAR
STARTCHAR 0422
ENCODING 1058
SWIDTH 411 0
DWIDTH 16 0
BBX 13 23 1 0
BITMAP
CFD8
CFD8
0FC0
0FC0
0FC0
0FC0
0FC0
0FC0
0FC0
0FC0
0FC0
0FC0
0FC0
0FC0
0FC0
0FC0
0FC0
0FC0
0FC0
0FC0
0FC0
0FC0
0FC0
ENDCHAR
STARTCHAR 0423
ENCODING 1059
SWIDTH 488 0
DWIDTH 19 0
BBX 17 23 1 0
BITMAP
FC1F80
FC1F80
FC1F80
FC1F80
FC1F80
FC1F80
FC1F80
FC1F80
FC1F80
FC1F80
FC1F80
FE7F80
3E7F80
001F80
001F80
001F80
001F80
001F80
001F80
001F80
001F80
FE3F80
FE3F00
ENDCHAR
STARTCHAR 0424
ENCODING 1060
SWIDTH 668 0
DWIDTH 26 0
BBX 23 23 1 0
BITMAP
7CFE7C
FCFE7E
FC7E7E
FC7E7E
FC7E7E
FC7E7E
FC7E7E
FC7E7E
FC7E7E
FC7E7E
FCFE7E
7CFE7C
3CFE78
007E00
007E00
007E00
007E00
007E00
007E00
007E00
007E00
007E00
007E00
ENDCHAR
STARTCHAR 0425
ENCODING 1061
SWIDTH 462 0
DWIDTH 18 0
BBX 16 23 1 0
BITMAP
FC3F
7C3E
7E7E
3E7C
3F3C
1F38
1F98
0F90
0F80
07C0
07C0
07E0
03E0
0BF0
19F0
19F8
1CF8
3CFC
3E7C
3E7C
7E7E
7C3E
FC3F
ENDCHAR
STARTCHAR 0426
ENCODING 1062
SWIDTH 540 0
DWIDTH 21 0
BBX 18 23 1 0
BITMAP
FC1F80
FC1F80
FC1F80
FC1F80
FC1F80
FC1F80
FC1F80
FC1F80
FC1F80
FC1F80
FC1F80
FC1F80
FC1F80
FC1F80
FC1F80
FC1F80
FC1F80
FC1F80
FC1F80
FC1F80
FC1F80
FE3FC0
7E3FC0
ENDCHAR
STARTCHAR 0427
ENCODING 1063
SWIDTH 488 0
DWIDTH 19 0
BBX 17 23 1 0
BITMAP
FC1F80
FC1F80
FC1F80
FC1F80
FC1F80
FC1F80
FC1F80
FC1F80
FC1F80
FC1F80
FE3F80
FE3F80
FE3F80
001F80
001F80
001F80
001F80
001F80
001F80
001F80
001F80
001F80
001F80
ENDCHAR
STARTCHAR 0428
ENCODING 1064
SWIDTH 771 0
DWIDTH 30 0
BBX 28 23 1 0
BITMAP
FC1F83F0
FC1F83F0
FC1F83F0
FC1F83F0
FC1F83F0
FC1F83F0
FC1F83F0
FC1F83F0
FC1F83F0
FC1F83F0
FC1F83F0
FC1F83F0
FC1F83F0
FC1F83F0
FC1F83F0
FC1F83F0
FC1F83F0
FC1F83F0
FC1F83F0
FC1F83F0
FC1F83F0
FE3FC7F0
7E3FC7F0
ENDCHAR
STARTCHAR 0429
ENCODING 1065
SWIDTH 822 0
DWIDTH 32 0
BBX 29 23 1 0
BITMAP
FC1F83F0
FC1F83F0
FC1F83F0
FC1F83F0
FC1F83F0
FC1F83F0
FC1F83F0
FC1F83F0
FC1F83F0
FC1F83F0
FC1F83F0
FC1F83F0
FC1F83F0
FC1F83F0
FC1F83F0
FC1F83F0
FC1F83F0
FC1F83F0
FC1F83F0
FC1F83F0
FC1F83F0
FE3FC7F8
7E3FC7F8
ENDCHAR
STARTCHAR 042A
ENCODING 1066
SWIDTH 540 0
DWIDTH 21 0
BBX 18 23 2 0
BITMAP
FE0000
FE0000
7E0000
7E0000
7E0000
7E0000
7E0000
7E0000
7E0000
7E0000
7F1F00
7F1FC0
7E0FC0
7E0FC0
7E0FC0
7E0FC0
7E0FC0
7E0FC0
7E0FC0
7E0FC0
7E0FC0
7F1FC0
7F1F80
ENDCHAR
STARTCHAR 042B
ENCODING 1067
SWIDTH 694 0
DWIDTH 27 0
BBX 25 23 1 0
BITMAP
FC001F80
FC001F80
FC001F80
FC001F80
FC001F80
FC001F80
FC001F80
FC001F80
FC001F80
FC001F80
FE3E1F80
FE3F9F80
FC1F9F80
FC1F9F80
FC1F9F80
FC1F9F80
FC1F9F80
FC1F9F80
FC1F9F80
FC1F9F80
FC1F9F80
FE3F9F80
FE3F1F80
ENDCHAR
STARTCHAR 042C
ENCODING 1068
SWIDTH 488 0
DWIDTH 19 0
BBX 17 23 1 0
BITMAP
FC0000
FC0000
FC0000
FC0000
FC0000
FC0000
FC0000
FC0000
FC0000
FC0000
FE3E00
FE3F80
FC1F80
FC1F80
FC1F80
FC1F80
FC1F80
FC1F80
FC1F80
FC1F80
FC1F80
FE3F80
FE3F00
ENDCHAR
STARTCHAR 042D
ENCODING 1069
SWIDTH 488 0
DWIDTH 19 0
BBX 17 23 1 0
BITMAP
FE3F00
FE3F80
FC1F80
FC1F80
001F80
001F80
001F80
001F80
001F80
001F80
001F80
063F80
063F80
001F80
001F80
001F80
001F80
001F80
001F80
FC1F80
FC1F80
FE3F80
FE3F00
ENDCHAR
STARTCHAR 042E
ENCODING 1070
SWIDTH 694 0
DWIDTH 27 0
BBX 25 23 1 0
BITMAP
FC3F3F00
FC7F3F80
FC7E1F80
FC7E1F80
FC7E1F80
FC7E1F80
FC7E1F80
FC7E1F80
FC7E1F80
FC7E1F80
FE7E1F80
FE7E1F80
FE7E1F80
FC7E1F80
FC7E1F80
FC7E1F80
FC7E1F80
FC7E1F80
FC7E1F80
FC7E1F80
FC7E1F80
FC7F3F80
FC3F3F00
ENDCHAR
STARTCHAR 042F
ENCODING 1071
SWIDTH 488 0
DWIDTH 19 0
BBX 17 23 1 0
BITMAP
7E3F80
FE3F80
FC1F80
FC1F80
FC1F80
FC1F80
FC1F80
FC1F80
FC1F80
FC1F80
FC1F80
7FFF80
001F80
0FDF80
0F9F80
0F9F80
1F9F80
1F1F80
3F1F80
3E1F80
3E1F80
7E1F80
7C1F80
ENDCHAR
STARTCHAR 0430
ENCODING 1072
SWIDTH 488 0
DWIDTH 19 0
BBX 17 23 1 0
BITMAP
7E3F00
FE3F80
FC1F80
FC1F80
FC1F80
FC1F80
FC1F80
FC1F80
FC1F80
FC1F80
FE3F80
FE3F80
FE3F80
FC1F80
FC1F80
FC1F80
FC1F80
FC1F80
FC1F80
FC1F80
FC1F80
FC1F80
FC1F80
ENDCHAR
STARTCHAR 0431
ENCODING 1073
SWIDTH 488 0
DWIDTH 19 0
BBX 17 23 1 0
BITMAP
FE7F80
FE7F80
FC0000
FC0000
FC0000
FC0000
FC0000
FC0000
FC0000
FC0000
FE7E00
FE7F80
FC1F80
FC1F80
FC1F80
FC1F80
FC1F80
FC1F80
FC1F80
FC1F80
FC1F80
FE7F80
FE7F00
ENDCHAR
STARTCHAR 0432
ENCODING 1074
SWIDTH 488 0
DWIDTH 19 0
BBX 17 23 1 0
BITMAP
FE3F00
FE3F80
FC1F80
FC1F80
FC1F80
FC1F80
FC1F80
FC1F80
FC1F80
FC1F80
FE3F00
FE3F00
FC1F80
FC1F80
FC1F80
FC1F80
FC1F80
FC1F80
FC1F80
FC1F80
FC1F80
FE3F80
FE3F00
ENDCHAR
STARTCHAR 0433
ENCODING 1075
SWIDTH 437 0
DWIDTH 17 0
BBX 15 23 1 0
BITMAP
FE7E
FE7E
FC00
FC00
FC00
FC00
FC00
FC00
FC00
FC00
FC00
FC00
FC00
FC00
FC00
FC00
FC00
FC00
FC00
FC00
FC00
FC00
FC00
ENDCHAR
STARTCHAR 0434
ENCODING 1076
SWIDTH 591 0
DWIDTH 23 0
BBX 19 23 2 0
BITMAP
3F1FC0
7F1FC0
7E0FC0
7E0FC0
7E0FC0
7E0FC0
7E0FC0
7E0FC0
7E0FC0
7E0FC0
7E0FC0
7E0FC0
7E0FC0
7E0FC0
7E0FC0
7E0FC0
7E0FC0
7E0FC0
7E0FC0
7E0FC0
7E0FC0
FF1FE0
FF1FE0
ENDCHAR
STARTCHAR 0435
ENCODING 1077
SWIDTH 437 0
DWIDTH 17 0
BBX 15 23 1 0
BITMAP
FE7E
FE7E
FC00
FC00
FC00
FC00
FC00
FC00
FC00
FC00
FC00
FE60
FE60
FC00
FC00
FC00
FC00
FC00
FC00
FC00
FC00
FE7E
FE7E
ENDCHAR
STARTCHAR 0436
ENCODING 1078
SWIDTH 797 0
DWIDTH 31 0
BBX 28 23 1 0
BITMAP
7E1F83F0
3F1F87E0
3F1F8FC0
1F9F9F80
0FCF9F80
07EF3F00
03F67E00
01F8FC00
01F9F800
00FDF800
007FF000
013FE400
031FCC00
039F9E00
07CF9F00
07E73F00
0FC23F80
1FD09F80
1F998FC0
3F1F8FC0
3F1F87E0
7E1F87F0
FE1F83F0
ENDCHAR
STARTCHAR 0437
ENCODING 1079
SWIDTH 488 0
DWIDTH 19 0
BBX 17 23 1 0
BITMAP
FF3F00
FF3F80
001F80
001F80
001F80
001F80
001F80
001F80
001F80
001F80
033F00
033F00
001F80
001F80
001F80
001F80
001F80
001F80
001F80
001F80
001F80
FF3F80
FF3F00
ENDCHAR
STARTCHAR 0438
ENCODING 1080
SWIDTH 488 0
DWIDTH 19 0
BBX 17 23 1 0
BITMAP
FC1F80
FC3F00
FC3F00
FC7E00
FC7E00
FCFC80
FCFC80
F9F980
FBF980
F3F380
F7F380
E7E780
EFE780
CFEF80
9FCF80
9FDF80
3F9F80
3F9F80
7F1F80
7F1F80
FE1F80
FE1F80
FC1F80
ENDCHAR
STARTCHAR 0439
ENCODING 1081
SWIDTH 488 0
DWIDTH 19 0
BBX 17 25 1 0
BITMAP
01C000
01C000
FD9F80
FDBF00
FD3F00
FD7E00
FC7E00
FCFC80
FCFC80
F9F980
FBF980
F3F380
F7F380
E7E780
EFE780
CFEF80
9FCF80
9FDF80
3F9F80
3F9F80
7F1F80
7F1F80
FE1F80
FE1F80
FC1F80
ENDCHAR
STARTCHAR 043A
ENCODING 1082
SWIDTH 488 0
DWIDTH 19 0
BBX 17 23 1 0
BITMAP
FC3F00
FC7F00
FC7E00
FCFC00
FDF800
FBF000
F3F000
E7E000
CFC000
9F8000
3F0000
3F2000
7E6000
FCF000
F9F000
F1F800
F1F800
E4FC00
CCFE00
9C7E00
3C7F00
7C3F00
FC1F80
ENDCHAR
STARTCHAR 043B
ENCODING 1083
SWIDTH 488 0
DWIDTH 19 0
BBX 16 23 1 0
BITMAP
03E0
03E0
03F0
01F0
09F0
09F0
09F8
09F8
1CF8
1CF8
1CFC
1EFC
1EFC
3E7C
3E7C
3E7E
3E7E
7E3E
7E3E
7C3F
7C3F
FC3F
FC1F
ENDCHAR
STARTCHAR 043C
ENCODING 1084
SWIDTH 771 0
DWIDTH 30 0
BBX 28 23 1 0
BITMAP
CF803F30
CF803F70
EFC03E70
E7C07E70
E7C07EF0
F7E07CF0
F3E0FCF0
FBE0FDF0
FBF0F9F0
F9F0F9F0
FDF1FBF0
FDF9F3F0
FCF9F3F0
FCF9F3F0
FCFDF3F0
FC7CE3F0
FC7CE3F0
FC7EE3F0
FC3E43F0
FC3F43F0
FC3F03F0
FC3F03F0
FC1F83F0
ENDCHAR
STARTCHAR 043D
ENCODING 1085
SWIDTH 488 0
DWIDTH 19 0
BBX 17 23 1 0
BITMAP
FC1F80
FC1F80
FC1F80
FC1F80
FC1F80
FC1F80
FC1F80
FC1F80
FC1F80
FC1F80
FE3F80
FE3F80
FE3F80
FC1F80
FC1F80
FC1F80
FC1F80
FC1F80
FC1F80
FC1F80
FC1F80
FC1F80
FC1F80
ENDCHAR
STARTCHAR 043E
ENCODING 1086
SWIDTH 488 0
DWIDTH 19 0
BBX 17 23 1 0
BITMAP
7E3F00
FE3F80
FC1F80
FC1F80
FC1F80
FC1F80
FC1F80
FC1F80
FC1F80
FC1F80
FC1F80
FC1F80
FC1F80
FC1F80
FC1F80
FC1F80
FC1F80
FC1F80
FC1F80
FC1F80
FC1F80
FE3F80
7E3F00
ENDCHAR
STARTCHAR 043F
ENCODING 1087
SWIDTH 488 0
DWIDTH 19 0
BBX 17 23 1 0
BITMAP
FE3F80
FE3F80
FC1F80
FC1F80
FC1F80
FC1F80
FC1F80
FC1F80
FC1F80
FC1F80
FC1F80
FC1F80
FC1F80
FC1F80
FC1F80
FC1F80
FC1F80
FC1F80
FC1F80
FC1F80
FC1F80
FC1F80
FC1F80
ENDCHAR
STARTCHAR 0440
ENCODING 1088
SWIDTH 488 0
DWIDTH 19 0
BBX 17 23 1 0
BITMAP
FE3F00
FE3F80
FC1F80
FC1F80
FC1F80
FC1F80
FC1F80
FC1F80
FC1F80
FC1F80
FE3F80
FE3F00
FE3E00
FC0000
FC0000
FC0000
FC0000
FC0000
FC0000
FC0000
FC0000
FC0000
FC0000
ENDCHAR
STARTCHAR 0441
ENCODING 1089
SWIDTH 385 0
DWIDTH 15 0
BBX 14 23 1 0
BITMAP
7E3C
FE3C
FC00
FC00
FC00
FC00
FC00
FC00
FC00
FC00
FC00
FC00
FC00
FC00
FC00
FC00
FC00
FC00
FC00
FC00
FC00
FE3C
7E3C
ENDCHAR
STARTCHAR 0442
ENCODING 1090
SWIDTH 411 0
DWIDTH 16 0
BBX 13 23 1 0
BITMAP
CFD8
CFD8
0FC0
0FC0
0FC0
0FC0
0FC0
0FC0
0FC0
0FC0
0FC0
0FC0
0FC0
0FC0
0FC0
0FC0
0FC0
0FC0
0FC0
0FC0
0FC0
0FC0
0FC0
ENDCHAR
STARTCHAR 0443
ENCODING 1091
SWIDTH 488 0
DWIDTH 19 0
BBX 17 23 1 0
BITMAP
FC1F80
FC1F80
FC1F80
FC1F80
FC1F80
FC1F80
FC1F80
FC1F80
FC1F80
FC1F80
FC1F80
FE7F80
3E7F80
001F80
001F80
001F80
001F80
001F80
001F80
001F80
001F80
FE3F80
FE3F00
ENDCHAR
STARTCHAR 0444
ENCODING 1092
SWIDTH 668 0
DWIDTH 26 0
BBX 23 23 1 0
BITMAP
7CFE7C
FCFE7E
FC7E7E
FC7E7E
FC7E7E
FC7E7E
FC7E7E
FC7E7E
FC7E7E
FC7E7E
FCFE7E
7CFE7C
3CFE78
007E00
007E00
007E00
007E00
007E00
007E00
007E00
007E00
007E00
007E00
ENDCHAR
STARTCHAR 0445
ENCODING 1093
SWIDTH 462 0
DWIDTH 18 0
BBX 16 23 1 0
BITMAP
FC3F
7C3E
7E7E
3E7C
3F3C
1F38
1F98
0F90
0F80
07C0
07C0
07E0
03E0
0BF0
19F0
19F8
1CF8
3CFC
3E7C
3E7C
7E7E
7C3E
FC3F
ENDCHAR
STARTCHAR 0446
ENCODING 1094
SWIDTH 540 0
DWIDTH 21 0
BBX 18 23 1 0
BITMAP
FC1F80
FC1F80
FC1F80
FC1F80
FC1F80
FC1F80
FC1F80
FC1F80
FC1F80
FC1F80
FC1F80
FC1F80
FC1F80
FC1F80
FC1F80
FC1F80
FC1F80
FC1F80
FC1F80
FC1F80
FC1F80
FE3FC0
7E3FC0
ENDCHAR
STARTCHAR 0447
ENCODING 1095
SWIDTH 488 0
DWIDTH 19 0
BBX 17 23 1 0
BITMAP
FC1F80
FC1F80
FC1F80
FC1F80
FC1F80
FC1F80
FC1F80
FC1F80
FC1F80
FC1F80
FE3F80
FE3F80
FE3F80
001F80
001F80
001F80
001F80
001F80
001F80
001F80
001F80
001F80
001F80
ENDCHAR
STARTCHAR 0448
ENCODING 1096
SWIDTH 771 0
DWIDTH 30 0
BBX 28 23 1 0
BITMAP
FC1F83F0
FC1F83F0
FC1F83F0
FC1F83F0
FC1F83F0
FC1F83F0
FC1F83F0
FC1F83F0
FC1F83F0
FC1F83F0
FC1F83F0
FC1F83F0
FC1F83F0
FC1F83F0
FC1F83F0
FC1F83F0
FC1F83F0
FC1F83F0
FC1F83F0
FC1F83F0
FC1F83F0
FE3FC7F0
7E3FC7F0
ENDCHAR
STARTCHAR 0449
ENCODING 1097
SWIDTH 822 0
DWIDTH 32 0
BBX 29 23 1 0
BITMAP
FC1F83F0
FC1F83F0
FC1F83F0
FC1F83F0
FC1F83F0
FC1F83F0
FC1F83F0
FC1F83F0
FC1F83F0
FC1F83F0
FC1F83F0
FC1F83F0
FC1F83F0
FC1F83F0
FC1F83F0
FC1F83F0
FC1F83F0
FC1F83F0
FC1F83F0
FC1F83F0
FC1F83F0
FE3FC7F8
7E3FC7F8
ENDCHAR
STARTCHAR 044A
ENCODING 1098
SWIDTH 540 0
DWIDTH 21 0
BBX 18 23 2 0
BITMAP
FE0000
FE0000
7E0000
7E0000
7E0000
7E0000
7E0000
7E0000
7E0000
7E0000
7F1F00
7F1FC0
7E0FC0
7E0FC0
7E0FC0
7E0FC0
7E0FC0
7E0FC0
7E0FC0
7E0FC0
7E0FC0
7F1FC0
7F1F80
ENDCHAR
STARTCHAR 044B
ENCODING 1099
SWIDTH 694 0
DWIDTH 27 0
BBX 25 23 1 0
BITMAP
FC001F80
FC001F80
FC001F80
FC001F80
FC001F80
FC001F80
FC001F80
FC001F80
FC001F80
FC001F80
FE3E1F80
FE3F9F80
FC1F9F80
FC1F9F80
FC1F9F80
FC1F9F80
FC1F9F80
FC1F9F80
FC1F9F80
FC1F9F80
FC1F9F80
FE3F9F80
FE3F1F80
ENDCHAR
STARTCHAR 044C
ENCODING 1100
SWIDTH 488 0
DWIDTH 19 0
BBX 17 23 1 0
BITMAP
FC0000
FC0000
FC0000
FC0000
FC0000
FC0000
FC0000
FC0000
FC0000
FC0000
FE3E00
FE3F80
FC1F80
FC1F80
FC1F80
FC1F80
FC1F80
FC1F80
FC1F80
FC1F80
FC1F80
FE3F80
FE3F00
ENDCHAR
STARTCHAR 044D
ENCODING 1101
SWIDTH 488 0
DWIDTH 19 0
BBX 17 23 1 0
BITMAP
FE3F00
FE3F80
FC1F80
FC1F80
001F80
001F80
001F80
001F80
001F80
001F80
001F80
063F80
063F80
001F80
001F80
001F80
001F80
001F80
001F80
FC1F80
FC1F80
FE3F80
FE3F00
ENDCHAR
STARTCHAR 044E
ENCODING 1102
SWIDTH 694 0
DWIDTH 27 0
BBX 25 23 1 0
BITMAP
FC3F3F00
FC7F3F80
FC7E1F80
FC7E1F80
FC7E1F80
FC7E1F80
FC7E1F80
FC7E1F80
FC7E1F80
FC7E1F80
FE7E1F80
FE7E1F80
FE7E1F80
FC7E1F80
FC7E1F80
FC7E1F80
FC7E1F80
FC7E1F80
FC7E1F80
FC7E1F80
FC7E1F80
FC7F3F80
FC3F3F00
ENDCHAR
STARTCHAR 044F
ENCODING 1103
SWIDTH 488 0
DWIDTH 19 0
BBX 17 23 1 0
BITMAP
7E3F80
FE3F80
FC1F80
FC1F80
FC1F80
FC1F80
FC1F80
FC1F80
FC1F80
FC1F80
FC1F80
7FFF80
001F80
0FDF80
0F9F80
0F9F80
1F9F80
1F1F80
3F1F80
3E1F80
3E1F80
7E1F80
7C1F80
ENDCHAR
STARTCHAR 2010
ENCODING 8208
SWIDTH 514 0
DWIDTH 20 0
BBX 18 2 1 11
BITMAP
FFFFC0
FFFFC0
ENDCHAR
STARTCHAR 2018
ENCODING 8216
SWIDTH 205 0
DWIDTH 8 0
BBX 6 7 1 18
BITMAP
FC
FC
FC
FC
E0
F0
F0
ENDCHAR
STARTCHAR 2019
ENCODING 8217
SWIDTH 205 0
DWIDTH 8 0
BBX 6 7 1 18
BITMAP
FC
FC
FC
FC
1C
3C
3C
ENDCHAR
STARTCHAR 201B
ENCODING 8219
SWIDTH 205 0
DWIDTH 8 0
BBX 6 7 2 18
BITMAP
FC
FC
FC
FC
1C
3C
3C
ENDCHAR
STARTCHAR 201C
ENCODING 8220
SWIDTH 411 0
DWIDTH 16 0
BBX 14 6 1 19
BITMAP
F0F0
F0F0
FCFC
FCFC
FCFC
FCFC
ENDCHAR
STARTCHAR 201D
ENCODING 8221
SWIDTH 411 0
DWIDTH 16 0
BBX 14 7 1 18
BITMAP
FCFC
FCFC
FCFC
FCFC
1C1C
3C3C
3C3C
ENDCHAR
STARTCHAR 2026
ENCODING 8230
SWIDTH 642 0
DWIDTH 25 0
BBX 23 4 1 0
BITMAP
F0781E
F0781E
F0781E
F0781E
ENDCHAR
STARTCHAR F101
ENCODING 61697
SWIDTH 514 0
DWIDTH 20 0
BBX 18 2 2 11
BITMAP
FFFFC0
FFFFC0
ENDCHAR
ENDFONT
